<svg xmlns="http://www.w3.org/2000/svg" version="1.1" xmlns:xlink="http://www.w3.org/1999/xlink" xmlns:svgjs="http://svgjs.dev/svgjs" viewBox="0 0 25.855823669548663 4.003009856147111"><g transform="matrix(1,0,0,1,0.7728874528130323,1.5573549280735555)"><rect width="25.855823669548663" height="25.855823669548663" x="-0.7728874528130305" y="-12.48376183477433" fill="#4e888f"></rect><g><path d=" M 0.20097 0.86121 Q 0.1134 0.82782 0.06426 0.7748999999999999 L 0.09324 0.72702 Q 0.13986 0.77616 0.21861 0.8070299999999999 Q 0.29736 0.8379 0.38430000000000003 0.8379 Q 0.5103 0.8379 0.5745600000000001 0.79002 Q 0.63882 0.74214 0.63882 0.66528 Q 0.63882 0.60606 0.6048 0.57078 Q 0.5707800000000001 0.5355 0.5203800000000001 0.5166 Q 0.46998 0.4977 0.38430000000000003 0.47753999999999996 Q 0.28728000000000004 0.45359999999999995 0.22869 0.43091999999999997 Q 0.1701 0.40823999999999994 0.12915000000000001 0.3609899999999999 Q 0.0882 0.3137399999999999 0.0882 0.2343599999999999 Q 0.0882 0.17009999999999992 0.12222000000000001 0.11654999999999993 Q 0.15624000000000002 0.06299999999999994 0.22617 0.03149999999999997 Q 0.29610000000000003 -1.1102230246251565e-16 0.40068000000000004 -1.1102230246251565e-16 Q 0.47376 -1.1102230246251565e-16 0.54432 0.021419999999999995 Q 0.61488 0.04283999999999999 0.66654 0.0793799999999999 L 0.6426000000000001 0.13103999999999993 Q 0.58968 0.09449999999999992 0.52605 0.07559999999999989 Q 0.46242 0.05669999999999997 0.40068000000000004 0.05669999999999997 Q 0.27846 0.05669999999999997 0.21546 0.10583999999999993 Q 0.15246 0.1549799999999999 0.15246 0.23309999999999997 Q 0.15246 0.2923199999999999 0.18648 0.3276 Q 0.2205 0.36288 0.27090000000000003 0.38178 Q 0.32130000000000003 0.40068 0.40824 0.4221 Q 0.50526 0.44603999999999994 0.56322 0.46871999999999997 Q 0.6211800000000001 0.49139999999999995 0.66213 0.53739 Q 0.70308 0.58338 0.70308 0.6615 Q 0.70308 0.72576 0.6684300000000001 0.7786799999999999 Q 0.63378 0.8316 0.56196 0.8631 Q 0.49014 0.8946 0.38556 0.8946 Q 0.28854 0.8946 0.20097 0.86121 M 2.2986290742187503 0.83034 L 2.2986290742187503 0.8883 L 1.6900490742187502 0.8883 L 1.6900490742187502 0.006299999999999972 L 2.27972907421875 0.006299999999999972 L 2.27972907421875 0.06425999999999998 L 1.7543090742187502 0.06425999999999998 L 1.7543090742187502 0.41201999999999994 L 2.22428907421875 0.41201999999999994 L 2.22428907421875 0.46871999999999997 L 1.7543090742187502 0.46871999999999997 L 1.7543090742187502 0.83034 L 2.2986290742187503 0.83034 M 3.301975072265625 0.006299999999999972 L 3.366235072265625 0.006299999999999972 L 3.366235072265625 0.83034 L 3.8740150722656255 0.83034 L 3.8740150722656255 0.8883 L 3.301975072265625 0.8883 L 3.301975072265625 0.006299999999999972 M 5.526280757812501 0.006299999999999972 L 5.526280757812501 0.8883 L 5.462020757812501 0.8883 L 5.462020757812501 0.46871999999999997 L 4.8723407578125 0.46871999999999997 L 4.8723407578125 0.8883 L 4.8080807578125 0.8883 L 4.8080807578125 0.006299999999999972 L 4.8723407578125 0.006299999999999972 L 4.8723407578125 0.41201999999999994 L 5.462020757812501 0.41201999999999994 L 5.462020757812501 0.006299999999999972 L 5.526280757812501 0.006299999999999972 M 7.148311365234376 0.64008 L 6.6367513652343755 0.64008 L 6.524611365234375 0.8883 L 6.455311365234376 0.8883 L 6.861031365234376 0.006299999999999972 L 6.925291365234376 0.006299999999999972 L 7.331011365234375 0.8883 L 7.261711365234376 0.8883 L 7.148311365234376 0.64008 M 7.124371365234376 0.5859 L 6.892531365234376 0.07685999999999993 L 6.661951365234375 0.5859 L 7.124371365234376 0.5859 M 8.872390898437502 0.8883 L 8.6619708984375 0.59346 Q 8.615350898437502 0.59976 8.5762908984375 0.59976 L 8.324290898437502 0.59976 L 8.324290898437502 0.8883 L 8.2600308984375 0.8883 L 8.2600308984375 0.006299999999999972 L 8.5762908984375 0.006299999999999972 Q 8.742610898437501 0.006299999999999972 8.837110898437501 0.08504999999999996 Q 8.931610898437501 0.16379999999999995 8.931610898437501 0.30365999999999993 Q 8.931610898437501 0.40823999999999994 8.878060898437502 0.47942999999999997 Q 8.8245108984375 0.5506199999999999 8.724970898437501 0.5795999999999999 L 8.9454708984375 0.8883 L 8.872390898437502 0.8883 M 8.5762908984375 0.54306 Q 8.717410898437501 0.54306 8.7917508984375 0.48068999999999995 Q 8.8660908984375 0.41831999999999997 8.8660908984375 0.30365999999999993 Q 8.8660908984375 0.18899999999999995 8.7917508984375 0.1266299999999999 Q 8.717410898437501 0.06425999999999998 8.5762908984375 0.06425999999999998 L 8.324290898437502 0.06425999999999998 L 8.324290898437502 0.54306 L 8.5762908984375 0.54306 M 10.0923996796875 0.06425999999999998 L 9.7748796796875 0.06425999999999998 L 9.7748796796875 0.006299999999999972 L 10.4741796796875 0.006299999999999972 L 10.4741796796875 0.06425999999999998 L 10.1566596796875 0.06425999999999998 L 10.1566596796875 0.8883 L 10.0923996796875 0.8883 L 10.0923996796875 0.06425999999999998" fill="#ffffff" fill-rule="nonzero"></path></g><g><path d=" M 14.9157210764226 0.45108 L 14.977461076422598 0.45108 L 14.977461076422598 0.7812 Q 14.919501076422598 0.8366399999999999 14.836971076422598 0.86562 Q 14.754441076422598 0.8946 14.662461076422598 0.8946 Q 14.531421076422598 0.8946 14.426211076422598 0.8366399999999999 Q 14.321001076422599 0.7786799999999999 14.261151076422598 0.67662 Q 14.201301076422599 0.57456 14.201301076422599 0.4473 Q 14.201301076422599 0.32004 14.261151076422598 0.21797999999999995 Q 14.321001076422599 0.11591999999999991 14.426211076422598 0.0579599999999999 Q 14.531421076422598 -1.1102230246251565e-16 14.663721076422599 -1.1102230246251565e-16 Q 14.7607410764226 -1.1102230246251565e-16 14.8420110764226 0.030869999999999953 Q 14.9232810764226 0.061739999999999906 14.981241076422599 0.12095999999999996 L 14.9409210764226 0.16379999999999995 Q 14.885481076422598 0.1083599999999999 14.8168110764226 0.08378999999999992 Q 14.748141076422598 0.05921999999999994 14.664981076422599 0.05921999999999994 Q 14.551581076422599 0.05921999999999994 14.460231076422598 0.10961999999999994 Q 14.368881076422598 0.16001999999999994 14.317221076422598 0.2488499999999999 Q 14.265561076422598 0.33768 14.265561076422598 0.4473 Q 14.265561076422598 0.55566 14.317851076422599 0.64449 Q 14.370141076422598 0.73332 14.4608610764226 0.78435 Q 14.551581076422599 0.83538 14.664981076422599 0.83538 Q 14.816181076422598 0.83538 14.9157210764226 0.75474 L 14.9157210764226 0.45108 M 16.574271996344475 0.64008 L 16.062711996344476 0.64008 L 15.950571996344474 0.8883 L 15.881271996344474 0.8883 L 16.286991996344472 0.006299999999999972 L 16.351251996344473 0.006299999999999972 L 16.756971996344475 0.8883 L 16.687671996344474 0.8883 L 16.574271996344475 0.64008 M 16.550331996344475 0.5859 L 16.318491996344473 0.07685999999999993 L 16.087911996344474 0.5859 L 16.550331996344475 0.5859 M 17.6859915295476 0.006299999999999972 L 17.7502515295476 0.006299999999999972 L 17.7502515295476 0.83034 L 18.2580315295476 0.83034 L 18.2580315295476 0.8883 L 17.6859915295476 0.8883 L 17.6859915295476 0.006299999999999972 M 19.800677215094474 0.83034 L 19.800677215094474 0.8883 L 19.192097215094474 0.8883 L 19.192097215094474 0.006299999999999972 L 19.781777215094476 0.006299999999999972 L 19.781777215094476 0.06425999999999998 L 19.256357215094475 0.06425999999999998 L 19.256357215094475 0.41201999999999994 L 19.726337215094475 0.41201999999999994 L 19.726337215094475 0.46871999999999997 L 19.256357215094475 0.46871999999999997 L 19.256357215094475 0.83034 L 19.800677215094474 0.83034 M 21.416383213141348 0.8883 L 21.20596321314135 0.59346 Q 21.159343213141348 0.59976 21.12028321314135 0.59976 L 20.86828321314135 0.59976 L 20.86828321314135 0.8883 L 20.80402321314135 0.8883 L 20.80402321314135 0.006299999999999972 L 21.12028321314135 0.006299999999999972 Q 21.286603213141348 0.006299999999999972 21.381103213141348 0.08504999999999996 Q 21.475603213141348 0.16379999999999995 21.475603213141348 0.30365999999999993 Q 21.475603213141348 0.40823999999999994 21.42205321314135 0.47942999999999997 Q 21.36850321314135 0.5506199999999999 21.268963213141348 0.5795999999999999 L 21.48946321314135 0.8883 L 21.416383213141348 0.8883 M 21.12028321314135 0.54306 Q 21.26140321314135 0.54306 21.33574321314135 0.48068999999999995 Q 21.41008321314135 0.41831999999999997 21.41008321314135 0.30365999999999993 Q 21.41008321314135 0.18899999999999995 21.33574321314135 0.1266299999999999 Q 21.26140321314135 0.06425999999999998 21.12028321314135 0.06425999999999998 L 20.86828321314135 0.06425999999999998 L 20.86828321314135 0.54306 L 21.12028321314135 0.54306 M 22.48016429907885 0.006299999999999972 L 22.54442429907885 0.006299999999999972 L 22.54442429907885 0.8883 L 22.48016429907885 0.8883 L 22.48016429907885 0.006299999999999972 M 24.229400765875727 0.83034 L 24.229400765875727 0.8883 L 23.620820765875727 0.8883 L 23.620820765875727 0.006299999999999972 L 24.21050076587573 0.006299999999999972 L 24.21050076587573 0.06425999999999998 L 23.68508076587573 0.06425999999999998 L 23.68508076587573 0.41201999999999994 L 24.155060765875728 0.41201999999999994 L 24.155060765875728 0.46871999999999997 L 23.68508076587573 0.46871999999999997 L 23.68508076587573 0.83034 L 24.229400765875727 0.83034" fill="#ffffff" fill-rule="nonzero"></path></g><g></g><g clip-path="url(#SvgjsClipPath1002)"><g clip-path="url(#b01d45067-56ad-40cb-918a-82660930ba3a571e4f56-06e0-45ed-8aee-449f507001bd)"><path d=" M 11.387496777776242 -0.7575481843279697 C 11.391630349732429 -0.7553016778300417 11.395494340908867 -0.7384079489656229 11.385497386993086 -0.7395087371496076 C 11.381992836856318 -0.7426987763766655 11.381139164387106 -0.7485172282062991 11.381431210231836 -0.7555487935448137 C 11.384037157769432 -0.7556611188697101 11.384216878289267 -0.7581322760174309 11.387496777776242 -0.7575481843279697 M 12.099257431514777 -0.7539537739312848 C 12.099706732814363 -0.7555038634148552 12.100942311388224 -0.7562452105591714 12.103278678146069 -0.7559531647144407 C 12.10822099244151 -0.7434625885859609 12.125182116500866 -0.7347686084389795 12.123317516107587 -0.7218511960758934 C 12.133943491842786 -0.726546394656563 12.136189998340715 -0.7107759190411083 12.141356963285949 -0.7038117488975314 C 12.120284732335383 -0.7134941919036012 12.110826939979107 -0.7347686084389795 12.099257431514777 -0.7539537739312848 M 12.742836613041197 -0.9504332322400697 C 12.747666602011742 -0.9327756911663555 12.761707267623793 -0.9043349189025867 12.75087910630378 -0.8842511508111102 C 12.738568250695135 -0.8979997705784297 12.742207591221778 -0.9277210515460175 12.736838440691729 -0.9483889113269552 C 12.739376993034387 -0.9485012366518517 12.73960164368418 -0.951017323929531 12.742836613041197 -0.9504332322400697 M 12.251637967269236 -0.6998129673312194 C 12.232228151127137 -0.7058336047456666 12.226769140337172 -0.7256927221873504 12.217535998630687 -0.7419124991023907 C 12.231621594372697 -0.7384079489656229 12.24651593245396 -0.7188858074986284 12.251637967269236 -0.6998129673312194 M 12.26367924209813 -0.6817285900228989 C 12.266509840285519 -0.6698895007788183 12.27677637498105 -0.6548154421777213 12.271676805230753 -0.641650914099863 C 12.266038073920955 -0.6527037260696689 12.26397128794286 -0.6673734135011389 12.259635530401859 -0.679729199239743 C 12.260107296766424 -0.6813017537882926 12.261342875340285 -0.6821104961275467 12.26367924209813 -0.6817285900228989 M 12.586434830655449 -0.7719932211096469 C 12.591219889496035 -0.7544255402958497 12.58949007949263 -0.7159428839863426 12.568395383477087 -0.7078105304638432 C 12.56298130281708 -0.7328141477857821 12.573068116992777 -0.7591432039414986 12.586434830655449 -0.7719932211096469 M 12.22557849189327 -0.5875101074997976 C 12.183703610771891 -0.6023595154511019 12.171505080488142 -0.6519399138603733 12.167416438661913 -0.6938147949817517 C 12.192936752478376 -0.693927120306648 12.183299239602265 -0.6588816189389709 12.205539653931753 -0.6556915797119132 C 12.20938118004321 -0.6565227871161465 12.207112208480302 -0.6634644921947441 12.213537217064376 -0.6617346821913395 C 12.216480140576662 -0.657286599325442 12.219625249673761 -0.653108097239296 12.219535389413844 -0.6456496956661748 C 12.219490459283886 -0.6423697961792 12.213986518363962 -0.6445489074821902 12.213537217064376 -0.641650914099863 C 12.21526702706778 -0.6225106787375162 12.23276731268664 -0.6028762119456254 12.22557849189327 -0.5875101074997976 M 12.446118034794864 -0.6536472587987986 L 12.452116207144332 -0.6536472587987986 C 12.465550316001941 -0.620331567434526 12.49837177593667 -0.6063582970174137 12.506279478809377 -0.5674712695382796 C 12.484802876689185 -0.5712454004547987 12.476356012256975 -0.598203478429935 12.464157481973226 -0.6176132945720332 C 12.456272244165499 -0.6301263357654923 12.442905530502827 -0.6409544970855052 12.446118034794864 -0.6536472587987986 M 13.408476488377271 -0.958475725502652 C 13.409936717600925 -0.9523202976983293 13.406432167464157 -0.9511071841894482 13.406477097594115 -0.9463895205437993 C 13.395940982118832 -0.9459402192442137 13.39755846679734 -0.9598910245963468 13.408476488377271 -0.958475725502652 M 12.518298288573291 -0.613592047940742 C 12.52146586273537 -0.6048082075338435 12.529014124568407 -0.585690437236476 12.520297679356448 -0.5775131535840179 C 12.516006851945404 -0.5880717341242796 12.511356583494694 -0.6065829476672066 12.518298288573291 -0.613592047940742 M 12.60851798953008 -0.6156139037888771 C 12.61168556369216 -0.6099302423491193 12.61168556369216 -0.5931937689395554 12.60851798953008 -0.5875101074997976 C 12.59856596574426 -0.5921828410154879 12.602452421985674 -0.6089867096199895 12.60851798953008 -0.6156139037888771 M 12.768918553482141 -0.6677328545408073 L 12.77491672583161 -0.6677328545408073 C 12.764021169316658 -0.6449308135868379 12.772872404918495 -0.6043589062342578 12.758876669436404 -0.5895094982829535 C 12.746026652268256 -0.6102222881938499 12.757933136707274 -0.6515355426907462 12.768918553482141 -0.6677328545408073 M 13.091719072169418 -0.7098323863119784 C 13.092168373469004 -0.7002622686308051 13.081138026564178 -0.6859969523689621 13.073679624991058 -0.677729808456587 C 13.074802878240021 -0.6932980984872282 13.081677188123681 -0.7031377969481529 13.091719072169418 -0.7098323863119784 M 12.574438485956513 -0.5434336500104499 C 12.578392337392867 -0.5379746392204847 12.575629134400415 -0.5259333643915904 12.576437876739668 -0.5173741746344848 C 12.567249665163143 -0.5155994345011217 12.567833756852604 -0.54249011728132 12.574438485956513 -0.5434336500104499 M 12.518298288573291 -0.5033110439574553 C 12.519174426107483 -0.49686357030840195 12.52211734961977 -0.49246041757246295 12.522297070139603 -0.4852940618440726 C 12.520410004681343 -0.48311495054108244 12.51490606376142 -0.4846650400246527 12.516298897790136 -0.47925095936464623 C 12.492373603587202 -0.48857396133104747 12.491654721507865 -0.5131956725483386 12.482196929151588 -0.5313923751815557 C 12.476356012256975 -0.5426923028661336 12.457058521439773 -0.5529139074317061 12.45813684455878 -0.5694706603214357 C 12.472626811470414 -0.5674038743433418 12.472065184845933 -0.5510268419734465 12.478175682520297 -0.5414342592272939 C 12.487678405006532 -0.5265174560810518 12.50490910984564 -0.5155994345011217 12.512277651158843 -0.4993122623911435 C 12.5130863934981 -0.5018508147338021 12.514861133631461 -0.5034233692823518 12.518298288573291 -0.5033110439574553 M 12.768918553482141 -0.5534306039262296 L 12.77491672583161 -0.5534306039262296 C 12.769794691016333 -0.5103201442309908 12.78237512740473 -0.4828678348263104 12.768918553482141 -0.45121455827050455 C 12.746655674087675 -0.47419631974430815 12.772288313229033 -0.5144087860572197 12.768918553482141 -0.5534306039262296 M 12.796977419641262 -0.5534306039262296 C 12.796483188211718 -0.5445569032594139 12.795517190417609 -0.5361549689571631 12.786935535595525 -0.5354136218128468 C 12.78922697222341 -0.5424901172813201 12.78893492637868 -0.5521276301574314 12.796977419641262 -0.5534306039262296 M 12.809018694470158 -0.5253942028320879 C 12.808861439015303 -0.5114883276099134 12.805311958748575 -0.5010196073295689 12.798976810424419 -0.4932916249766964 C 12.79331561404964 -0.4905958171791828 12.79394463586906 -0.503917600711896 12.790956782226816 -0.4972904065430083 C 12.78922697222341 -0.4769370576717804 12.80762586044144 -0.43683691668376523 12.786935535595525 -0.4211338362632483 C 12.779185088177673 -0.4487434011227837 12.786621024685815 -0.48533899197403124 12.786935535595525 -0.5173741746344849 C 12.796191142366988 -0.5199351920421227 12.79017050495254 -0.5071975001988709 12.794978028858107 -0.5053104347406112 C 12.7995384370489 -0.5121398144943126 12.799066670684336 -0.5239339736084346 12.809018694470156 -0.5253942028320878 M 12.831056923214831 -0.4952910157598523 C 12.828495905807193 -0.48581075833859605 12.828720556456986 -0.47358976298986766 12.81703872266776 -0.4732078568852198 C 12.81921783397075 -0.48307002041112385 12.822587593717643 -0.491741535493126 12.831056923214831 -0.4952910157598523 M 13.155856832685265 -0.5714700511045916 L 13.16189993516469 -0.5714700511045916 C 13.162191981009421 -0.5665277368091499 13.160844077110665 -0.5631355119972786 13.15785622346842 -0.5614281670588533 C 13.156193808659953 -0.563809463946657 13.155227810865844 -0.5668647127838391 13.155856832685265 -0.5714700511045916 M 12.68469702487482 -0.45316901892370187 C 12.686157254098474 -0.4464744295598764 12.700265314905462 -0.4242564802953682 12.686696415657975 -0.41709012456697786 C 12.67903582850004 -0.4248630370498088 12.67908075863 -0.4466990802096692 12.68469702487482 -0.45316901892370187 M 12.213537217064376 -0.4211338362632483 C 12.224297983189452 -0.42045988431386994 12.243550543876694 -0.41100209195759285 12.24963857648608 -0.3990731424535951 C 12.232362941517014 -0.40116239349666816 12.223039939550612 -0.41120427754240646 12.213537217064376 -0.4211338362632483 M 12.267678023664441 -0.24064950421971087 C 12.262825569628918 -0.23698769862808833 12.270418761591914 -0.22883288004060953 12.267678023664441 -0.2206331313231723 C 12.240809805949223 -0.21162464026648098 12.224230587994514 -0.24271629019780472 12.213537217064376 -0.2627326630943434 C 12.23121722320307 -0.26994394895269236 12.252671360258283 -0.24920869397681666 12.267678023664441 -0.24064950421971087 M 12.267678023664441 -0.24064950421971087 C 12.277562652255325 -0.24577153903498683 12.28989597292895 -0.2380435566821144 12.291715643192271 -0.22865315952077536 C 12.280011344338066 -0.2289452053655059 12.271856525750588 -0.23283166160692148 12.267678023664441 -0.24064950421971087 M 12.077196737705124 0.23250969437388913 C 12.066480901710008 0.23320611138824687 12.063111141963116 0.22655645215437992 12.05113726232916 0.2284884477425979 C 12.051698888953641 0.2178624720073985 12.07360232730844 0.22732026436367536 12.077196737705124 0.23250969437388913 M 13.141838632138194 0.021967105388074892 C 13.148061455137455 0.01956334343529198 13.159249057497137 0.021046037723924438 13.163899325947847 0.026010817084345272 C 13.158350454897965 0.02780802228268764 13.147791874357702 0.028437044102107456 13.141838632138194 0.021967105388074892 M 12.650617521301252 -0.3669480995332243 C 12.669533106013805 -0.36229783108251334 12.68779720384196 -0.35987160406475105 12.70875710946763 -0.3569511456174447 C 12.72744804353039 -0.3543676631448275 12.739084947189657 -0.34145025078174124 12.752878497086936 -0.342955410135353 C 12.760359363725037 -0.3437192223446486 12.76523428282554 -0.35117762391776963 12.772917335048454 -0.35095297326797686 C 12.768109811142887 -0.327881351534256 12.790754596642001 -0.30990929955083185 12.809018694470158 -0.3288698143933444 C 12.810299203173976 -0.3346882662229779 12.809760041614473 -0.34960506936922003 12.819038113450915 -0.3529523640511327 C 12.828495905807193 -0.35113269378781103 12.818993183320957 -0.33111632089127235 12.823036895017228 -0.3288698143933444 C 12.832090316203878 -0.32516307867176314 12.87441449862484 -0.32403982542279913 12.895194683730676 -0.3148516138462735 C 12.902742945563714 -0.30307991979713067 12.91098762441111 -0.28333312768034336 12.915278451822152 -0.274729007793279 C 12.927432051975943 -0.2700562742775888 12.949223165005845 -0.2563750497052071 12.963398621007771 -0.2527357091785637 C 12.965240756336073 -0.24291847578261827 12.950166697734975 -0.2532074755431286 12.951357346178876 -0.2486919974822932 C 12.951649392023608 -0.24029006318004253 12.95032395318983 -0.243862008511748 12.947358564612564 -0.2466926066991374 C 12.947560750197379 -0.24166043214377853 12.951110230464105 -0.2404697836998766 12.947358564612564 -0.23665072265339904 C 12.951042835269167 -0.23617895628883423 12.965465406985864 -0.23018078393936636 12.965398011790926 -0.23865011343655496 C 12.963690666852502 -0.23734713966775678 12.950773254489416 -0.23851532304667933 12.955401057875147 -0.2466926066991374 C 12.96840833049815 -0.2490289734569825 12.962724669058392 -0.2326519410870872 12.975417430771685 -0.23465133187024312 C 12.976967520255256 -0.23977336668551896 12.967577123093918 -0.243862008511748 12.97341803998853 -0.2466926066991374 C 12.973912271418074 -0.2445134953961472 12.976720404540485 -0.24186261772859208 12.977416821554842 -0.24469321591598148 C 12.988851539629295 -0.24500772682569139 12.977214635970029 -0.23793123135721816 12.981415603121153 -0.23665072265339904 C 12.989592886773611 -0.23647100213356487 12.997590449906236 -0.2363586768086685 13.001342115757776 -0.24053717889481452 C 13.013922552146171 -0.2298213428996978 12.994557666134032 -0.18947408619691053 13.021538209174148 -0.18453177190146897 C 13.028210333472995 -0.18655362774960427 13.027805962303367 -0.19560704893625402 13.037578265569355 -0.19455119088222794 C 13.040453793886702 -0.1812743374794733 13.026772569314321 -0.16817720459655305 13.023537599957304 -0.15447351495919215 C 13.032298975299224 -0.14050024454207977 13.046204850521399 -0.13169393907020188 13.049619540398249 -0.11235151812304167 C 13.031984464389513 -0.10260167992203395 13.023155693852656 -0.07029691648182912 13.037578265569355 -0.06420888387244406 C 13.028120473213077 -0.06712934231975054 13.044856946622641 -0.05868247788754111 13.035578874786198 -0.05621132073982038 C 13.048339031694429 -0.03668917927282567 13.066940105497274 -0.05919917438206457 13.075679015774213 -0.06220949308928814 C 13.086170201119538 -0.06593869387584872 13.098907892962789 -0.06524227686149098 13.109736054282802 -0.06420888387244406 C 13.129123405359922 -0.06247907386903939 13.150307961635383 -0.07930540753852033 13.16189993516469 -0.06420888387244406 C 13.154845904761197 -0.05338072255243098 13.142804629932304 -0.05625625086977881 13.1297973573093 -0.06021010230613211 C 13.11258911753517 -0.047382550202963114 13.082598255787833 -0.04729268994304603 13.061638350162163 -0.03817187356145835 C 13.0555278524878 -0.01689745702607981 13.066221223417937 -0.005619994406481199 13.06363774094532 0.015924002908648593 C 13.045620758831936 0.03153722306924833 13.038521798298484 0.07837688355104755 13.06763652251163 0.07613037705311954 C 13.095313482566104 0.07395126575012934 13.0847998321558 0.01992278447496032 13.1017160260852 0.00192826742655694 C 13.132785210951543 -0.017189502870810336 13.18378090845451 0.012104941862171037 13.215995811634798 -0.010090542337357844 C 13.217041935680504 -0.007307402673610408 13.219248045161104 -0.005117695493980556 13.222038914114224 -0.004092369987890199 C 13.220915660865261 0.0028268700257283452 13.216197997219611 0.006106769512703281 13.211997030068485 0.009925830559180948 C 13.173581768953916 0.0063538852274754865 13.132380839781916 0.007993834970962954 13.107736663499646 0.026010817084345605 C 13.09234809398884 0.06116864377691911 13.125573925093194 0.07237871120158001 13.131819213157435 0.09816860579779385 C 13.123147698075432 0.11975753324288207 13.078824124871312 0.1270811444261274 13.085675969689992 0.15230941239785922 C 13.090685679180373 0.17066337048593117 13.128292197955687 0.16219404098874246 13.139839241355038 0.17839135283880359 C 13.149566614491066 0.17623470660079277 13.217860412028077 0.17383094464800963 13.217995202417953 0.19438647910405116 C 13.214558047476123 0.19690256638173065 13.207661272527485 0.1991266078146794 13.197888969261498 0.19971069950414067 C 13.176479762336243 0.20227171691177848 13.1266522482122 0.19389224767450708 13.107736663499646 0.1863889159714276 C 13.086327456574391 0.1797617218025399 13.078824124871312 0.15913879215156068 13.051618931181403 0.1583075847473273 C 13.051933442091114 0.16466519813646363 13.046272245716334 0.16504710424111135 13.047620149615092 0.17237071542435667 C 13.051618931181403 0.1783913528388038 13.070309865244166 0.19506043105342974 13.055617712747715 0.1963858698872072 C 13.057167802231286 0.19595903365260092 13.008283820836372 0.19189285689135116 12.99745565951636 0.21442531706556933 C 13.00152183627761 0.2244447360463282 13.018527890466924 0.21880600473652878 13.02955823737175 0.22183878850873162 C 13.045867874546708 0.2276572403383652 13.0317822788047 0.26135483780728563 13.045620758831936 0.268611053795593 C 13.063076114320836 0.25897354091948177 13.082171419553225 0.27391280913070326 13.083676578906838 0.29264867332342304 C 13.075903666424006 0.2979279635935539 13.065345085883745 0.2917276056592726 13.057617103530871 0.2906492825402669 C 13.038813844143215 0.3089807755633598 13.010103491099695 0.3033869743835189 13.003498761995786 0.3327488143114383 C 12.99496203730366 0.37046765841164975 13.018550355531904 0.42831520073329643 12.977416821554842 0.4490504557091719 C 12.95654677618909 0.4460626020669276 12.950503673709663 0.45143175259697577 12.929319117434202 0.4510498464923278 C 12.92347820053959 0.45459932675905423 12.919951185337842 0.4603503833937499 12.917277842605309 0.46708990288753394 C 12.899844952181386 0.4675841343170781 12.892431480738225 0.47104375432388745 12.881198948248585 0.46908929367068986 C 12.873785476805422 0.4802544309653922 12.88005322993464 0.49353128436814675 12.885197729814896 0.503168797244258 C 12.878682860970905 0.506695812446005 12.864911776138605 0.5029216815294859 12.861137645222087 0.5091669695937258 C 12.86228336353603 0.5006976400965373 12.85572356456208 0.49988889775728307 12.85109576117635 0.49717062489479025 C 12.841952479729782 0.5073922294603628 12.850331948967053 0.5211857793576411 12.857138863655775 0.5272513469020466 C 12.84172782907999 0.5349343991249604 12.820408482414653 0.53026166560927 12.809018694470156 0.52120824442262 C 12.78520572559212 0.5271390215771501 12.760336898660057 0.5340133314608098 12.748834785390665 0.551266501364897 C 12.743735215640369 0.5590169487827488 12.745644746163608 0.5701146908825132 12.74083722225804 0.5653071669769472 C 12.74308372875597 0.5754613763475818 12.749194226430333 0.5914340375478502 12.738837831474886 0.5973872797673592 C 12.723853633133706 0.5873903258515796 12.748924645650582 0.5598032260570234 12.736838440691729 0.5472677197985851 C 12.723381866769142 0.5598930863169407 12.705993906475177 0.5685421363339638 12.69471644385558 0.5833915442852677 C 12.691369149173667 0.5768991405062558 12.691795985408273 0.579100716874225 12.692717053072423 0.5693059485432588 C 12.683910747600546 0.5625439639844954 12.669016409519282 0.554164494747224 12.65661569365072 0.5573096038443233 C 12.654593837802585 0.5412920125140965 12.639519779201487 0.5383041588718522 12.63260053918787 0.5272513469020463 C 12.637340667898497 0.49481179307196577 12.59795940898982 0.4725039835475404 12.580436658305981 0.4490504557091719 C 12.56922659088132 0.42764124878391785 12.585086926756691 0.40342390873625367 12.576437876739668 0.39890843067541826 C 12.565744505809532 0.39850405950579115 12.569900542830698 0.4133983975870543 12.564396601910774 0.4089503147211566 C 12.569563566856008 0.4084785483565918 12.561655863983303 0.4054906947143475 12.564396601910774 0.4009078214585744 C 12.559948519044877 0.39596550716313295 12.550737842403372 0.3958531818382365 12.544380229014235 0.3928653281959922 C 12.55484894929458 0.3762187150463454 12.568395383477085 0.39057389156810585 12.584435439872292 0.3928653281959922 C 12.58203167791951 0.3844633938937412 12.58767040922931 0.38410395285407284 12.588479151568563 0.37886959271390075 C 12.57816645130012 0.36989736594817235 12.565744619409712 0.3636903149164372 12.55237779214686 0.3608301455355385 C 12.523285532998692 0.37752168881514403 12.44279320517793 0.39468499845931393 12.432077369182814 0.35081072655477974 C 12.436121080879085 0.33856726614107213 12.4462977553147 0.33072695846330324 12.444118644011708 0.31873061376436773 C 12.469436772243357 0.23208285813928375 12.446814451809221 0.25380657597424783 12.373915315951457 0.2826067892776851 C 12.360346416703972 0.2918399309841695 12.330714995996301 0.2871671974684791 12.317797583633215 0.28660557084399696 C 12.323211664293222 0.29404150735213874 12.315528612070308 0.30215139580965866 12.317797583633215 0.3126875112849412 C 12.31420317323653 0.3138107645339052 12.309485509590882 0.31372090427398813 12.307778164652456 0.31668629285125305 C 12.306812166858347 0.32603175988263366 12.305059891789963 0.33007547157890427 12.307778164652456 0.3387469866609063 C 12.302521339447305 0.3528550474678944 12.272418152375069 0.35626973734474476 12.267678023664441 0.37886959271390075 C 12.262129152614559 0.4051986488696171 12.248515323237115 0.42323809604797935 12.227577882676426 0.40695092393800114 C 12.223039939550612 0.3863953894819596 12.237911812566896 0.3696364510074166 12.265678632881286 0.37482588101763037 C 12.282774547330519 0.3625599555389434 12.27801195355491 0.328368126640479 12.293715033975428 0.31468690206809713 C 12.289783647604054 0.2977033129437614 12.27958450810346 0.2769006627729478 12.295736889823562 0.26661166301243755 C 12.280887481872258 0.238507866723358 12.254468565456625 0.21494201356009301 12.267678023664441 0.17037132464120108 C 12.257456419098869 0.18751216922039182 12.225668352153187 0.2021369265219034 12.231576664242738 0.20242897236663393 C 12.247122489208401 0.22343380812226088 12.272867453674655 0.23008346735612784 12.265678632881286 0.26461227222928163 C 12.260331947416217 0.2900651908508063 12.222029011626544 0.29806275398342996 12.193498379102857 0.30064623645604716 C 12.193251263388087 0.3077901271194581 12.186062442594716 0.3079249175093337 12.187477741688411 0.31668629285125305 L 12.185478350905255 0.32272939533067957 C 12.169483224640008 0.34034200627443534 12.147692111610105 0.34517199524498055 12.12131812532443 0.3488113357716238 C 12.115948974794383 0.34009489055966324 12.107187599452464 0.33110886456795097 12.095258649948466 0.3347257400296151 C 12.083397095639405 0.3159224806419574 12.07079419418603 0.29240155760865116 12.081195519271436 0.26259041638114633 C 12.089260477598998 0.2605910255979904 12.11785850531762 0.22457952643620427 12.119318734541274 0.21844656369686066 C 12.125137186370909 0.21224620576257913 12.131472334695065 0.20658500938780067 12.14535574485226 0.20842714471610158 C 12.153825074349449 0.21435792187063174 12.163687237875353 0.20294566886115728 12.171437685293204 0.20723649627219987 C 12.190106154290987 0.19330815598504625 12.181097663234295 0.1940719681943418 12.181457104273964 0.17037132464120108 C 12.194194796117216 0.16590077671032433 12.204259145227933 0.1735838289332382 12.215536607847532 0.17639196205564822 C 12.237080605162662 0.17241564555431554 12.27367619601391 0.14521045186440718 12.243595474006653 0.12622747195691542 C 12.235485585549133 0.14056018341369625 12.207943415884536 0.12411575584886314 12.193498379102857 0.12422808117375961 C 12.184647143501023 0.12429547636869742 12.17038182723918 0.1340003844397465 12.153375773049863 0.13626935600265377 C 12.134437723272331 0.13876297821535388 12.115342418039942 0.1359997752229024 12.101256822297934 0.1382687467858097 C 12.087238621750863 0.1405152532837377 12.043162164261515 0.15336527045188597 12.043139699196535 0.16235129644359825 C 12.043094769066577 0.167226215544102 12.063335792612909 0.17223592503448149 12.059157290526763 0.17639196205564833 C 12.054776602855803 0.18203069336544764 12.044465138030313 0.181738647520717 12.045139089979692 0.19238708832089602 C 12.045768111799111 0.20177748548223506 12.05551795000012 0.2020695313269657 12.055136043895471 0.21242592628241397 C 12.049789358430402 0.21512173407992752 12.04203891101255 0.21541377992465827 12.041095378283421 0.22246781032815233 C 12.03833217529097 0.23327350658318613 12.048733500376377 0.2308922096953825 12.047138480762847 0.24050725750651414 C 12.04552099608434 0.24495534037241162 12.03770315347155 0.24313567010908987 12.03709659671711 0.2485272857041172 C 12.037972734251301 0.25499722441815 12.040960587893546 0.2594003771540889 12.041095378283421 0.266611663012438 C 12.03487255528416 0.2691052852251379 12.033052885020838 0.26351148404529723 12.023055931105059 0.266611663012438 C 12.018158546939576 0.2836177172017529 11.993109999487679 0.29599596800533634 11.99904077664221 0.31873061376436795 C 11.988909032336553 0.3200785176631247 11.989695309610829 0.3106656554368066 11.978957008550733 0.31268751128494143 C 11.967702010996113 0.3181240570099273 11.96156904825677 0.3287051026151686 11.958895705524235 0.3427906983571771 C 11.948876286543475 0.3440936721259755 11.947056616280154 0.33721936224231586 11.940833793280893 0.33472574002961575 C 11.929915771700964 0.34247618744746733 11.915515665049245 0.3468568751184269 11.906731824642346 0.3568313639692273 C 11.900598861903003 0.35424788149661013 11.901407604242257 0.3448125542053124 11.892736089160255 0.34479008914033304 C 11.885637128626803 0.34703659563826106 11.885951639536511 0.35671903864433085 11.878672958483225 0.35883075475238324 C 11.871461672624877 0.35737052552873005 11.872966831978488 0.3471713860281369 11.864654757936155 0.34678947992348896 C 11.85357948090137 0.34703659563826106 11.84949083907514 0.35438267188648576 11.840594673343345 0.3568313639692273 C 11.83138399670184 0.3540232308468174 11.825790195522 0.347575757197764 11.816512123685557 0.34479008914033304 L 11.712296687246676 0.30064623645604716 C 11.71153287503738 0.2981301491783681 11.70814065022551 0.292738533583341 11.705040471258368 0.28806580006765037 C 11.693246312144247 0.2890317978617596 11.681025316795518 0.28878468214698727 11.670758782099986 0.29170514059429387 C 11.668935315651373 0.2905172324284593 11.667596695813948 0.2887164700281142 11.666984651183467 0.28662803590897656 C 11.677925137828376 0.28453878486590334 11.688191672523908 0.27863047277635267 11.698548067479356 0.2733511825062218 C 11.691112130971215 0.25886121559458597 11.687742371224322 0.2266687774792775 11.674151006911858 0.21242592628241386 C 11.67943029718199 0.194970570793513 11.691067200841257 0.17623470660079343 11.676217792889952 0.1603069755304838 C 11.689135205253038 0.15655530967894382 11.69688565267089 0.1476366788821697 11.698233556569646 0.13224810937136255 C 11.690775154996526 0.12566584533243352 11.683249358228467 0.126744168451439 11.681070246925476 0.12332947857458842 C 11.682126104979503 0.12393603532902897 11.679138251337259 0.11378182595839437 11.682238430304398 0.11420866219300063 C 11.688528648498597 0.1170617254453693 11.696054445266656 0.12083585636188832 11.702232338135959 0.11820744375931247 C 11.705444842427996 0.1067277955549003 11.711016178542858 0.09756204904335408 11.716295468812987 0.08817165188201481 C 11.710162506073644 0.07648981809278899 11.709331298669412 0.08179157342789911 11.706298514897208 0.0680878837905382 C 11.714722914264438 0.06449347339385358 11.71775569803664 0.06880676586987522 11.728314278576903 0.07008727457369412 C 11.74181578262945 0.05820325519965486 11.75868704642889 0.04964406544254929 11.760371926302335 0.02601081708434627 C 11.776277192307665 0.01556456186898092 11.793103525977147 0.02531440006998864 11.81051395133609 0.019967714604919973 C 11.814827243812111 0.018642275771142414 11.819073141093195 0.011992616537275458 11.822532761100003 0.009925830559181614 C 11.837382169051308 0.0013666408020758247 11.841313555422682 0.007364813151543692 11.854657804020375 0.009925830559181614 C 11.862767692477895 0.01152085017271054 11.871147161715166 0.006533605747310212 11.878672958483225 0.011925221342337533 C 11.885322617717092 0.007881509646067153 11.88667052161585 -0.0014639573853134635 11.89473547994341 -0.0040923699878893105 C 11.897633473325737 0.015092795504416001 11.917043289467836 0.01774367317197101 11.930814374300134 0.02601081708434627 C 11.936205989895162 0.023337474351811882 11.941485280165292 0.02061920148931906 11.94687689576032 0.017968323821764054 C 11.955368690322487 0.02715653539828955 11.96873540398516 0.03773758100353075 11.980978864398868 0.028010207867502412 C 11.984977645965179 0.023382404481770647 11.980484632969324 0.025741236304595017 11.978957008550733 0.021967105388076003 C 11.98902135766145 0.01671028018292442 11.997288501573825 0.009543924454534114 12.001040167425364 -0.0020929792047330587 C 12.0336369767103 -0.008203476879097282 12.04392597647081 -0.03668917927282467 12.077196737705124 -0.04217065512776896 C 12.097213110601663 -0.07034184661178644 12.15005094343293 -0.07622769363635784 12.15939641046431 -0.10835273655672861 C 12.176020558548979 -0.11751848306827495 12.2040794247081 -0.13445714206265214 12.187477741688411 -0.15847229652550265 C 12.169640480094863 -0.1613478248428506 12.160205152803565 -0.1726252874624492 12.149376991483551 -0.18250991605333244 C 12.151106801486957 -0.22366591509537392 12.115364883104922 -0.22737265081695524 12.109276850495537 -0.26073327231118626 C 12.140233710036986 -0.28000829806340866 12.147242810310521 -0.2312591070583705 12.161418266312447 -0.21461249390872394 C 12.188533599742438 -0.20081894401144584 12.190892431565262 -0.1625609383517317 12.225578491893272 -0.16047168730865857 C 12.235395725289216 -0.1598875956191973 12.249998017525748 -0.1641559579652606 12.255636748835547 -0.16651478978808498 C 12.274709589002956 -0.17444495772577084 12.275563261472168 -0.1929337062037184 12.28771686162596 -0.21056878221245345 C 12.292591780726463 -0.21769020781088533 12.305149752049882 -0.22180131470209352 12.311799411283749 -0.22865315952077403 C 12.313169780247485 -0.23006845861446867 12.31233857284325 -0.23541514407953734 12.313798802066904 -0.23665072265339782 C 12.31799976921803 -0.24035745837497902 12.329187371577712 -0.23712248901796273 12.327817002613974 -0.24669260669913606 C 12.321998550784341 -0.25531919165117967 12.313394430897278 -0.2647320538774981 12.30175752723801 -0.2567344907448743 C 12.300229902819419 -0.26590023725642065 12.290749645398163 -0.26709088570032247 12.283718080059648 -0.27073022622696596 C 12.284773938113673 -0.26695609531044684 12.294254195534931 -0.26145215439052316 12.289716252409116 -0.25873388152803023 C 12.262129152614559 -0.2727296170101219 12.240270644389721 -0.30937013799132795 12.199496551452327 -0.31687346969440755 C 12.165776488918427 -0.35396329197519916 12.163754633070292 -0.4227962510717138 12.111276241278693 -0.4411726742247651 C 12.109703686730143 -0.4511022329456069 12.108086202051636 -0.4599310034824641 12.11327563206185 -0.4672096845357509 C 12.133808701452912 -0.47464562104389263 12.139694548477483 -0.4544495276275197 12.149376991483553 -0.445171455791077 C 12.160968965012861 -0.4341186438212711 12.175548792184413 -0.4204374192488895 12.187477741688411 -0.4110919522175089 C 12.195160793911326 -0.4050039196081239 12.205382398476898 -0.40206099609583823 12.213537217064376 -0.3950518958223028 C 12.223624031240073 -0.38642531087025916 12.227869928521157 -0.37204766928351984 12.237597301657186 -0.3569511456174435 C 12.245055703230307 -0.34535917208813494 12.254221449741854 -0.3386870477892887 12.257636139618704 -0.32886981439334323 C 12.259905111181611 -0.32235494554935196 12.258152836113227 -0.31631184306992555 12.261634921185015 -0.3108528322799605 C 12.271384759386024 -0.2956664483539671 12.301263295808466 -0.29784555965695725 12.309800020500592 -0.28277150105586024 L 12.309800020500592 -0.2647320538774982 C 12.322178271304177 -0.26459726348762247 12.32172897000459 -0.25145520047474357 12.335814565746599 -0.2527357091785626 C 12.36016669618414 -0.2549148204815528 12.383328178177777 -0.29238654886699217 12.355898333838075 -0.3088309764318253 C 12.358728932025464 -0.3093027427963902 12.359268093584967 -0.3121333409837795 12.361896506187543 -0.31285222306311644 C 12.372050715558178 -0.30368647655157005 12.384294175971885 -0.29860937186625275 12.399997256392403 -0.3008334132992015 C 12.457215776894628 -0.3087860463018667 12.454115597927489 -0.4215382074328742 12.564396601910776 -0.3769899835789615 C 12.590501007416698 -0.3928503194543333 12.636239879714513 -0.3930075749091883 12.650617521301253 -0.3669480995332232 M 11.680239039521243 0.12222869039060247 L 11.680688340820828 0.12294757246993948 C 11.680486155236014 0.12274538688512593 11.680283969651201 0.12254320130031238 11.680239039521243 0.12222869039060247 M 11.680688340820828 0.12294757246993948 C 11.680826588354686 0.12306343706974354 11.680954382325671 0.12319123104073049 11.681070246925476 0.12332947857458743 C 11.680920304886511 0.12322703152618242 11.680790787869233 0.12309751450890516 11.680688340820828 0.12294757246993948 M 13.00149937121263 -0.24064950421971087 C 13.001431976017692 -0.24062703915473171 13.001364580822754 -0.24058210902477306 13.001342115757774 -0.24053717889481463 C 13.001274720562837 -0.24058210902477306 13.001229790432879 -0.24069443434966964 13.001162395237941 -0.2407168994146488 C 13.001252255497858 -0.2407168994146488 13.001364580822754 -0.2407168994146488 13.00149937121263 -0.24064950421971087 M 12.99745565951636 -0.24269382513282556 C 12.998812360775322 -0.24229265645750409 13.000073435429048 -0.24162008330885043 13.001162395237941 -0.2407168994146488 C 12.99961230575437 -0.24109880551929663 12.997523054711298 -0.24087415486950392 12.99745565951636 -0.24269382513282556 M 12.796977419641262 -0.38700940255972166 C 12.7938997057391 -0.36822860823704345 12.809670181354555 -0.3440337332543586 12.792956173009971 -0.33091413530645897 C 12.771636826344634 -0.34055164818257017 12.794933098728148 -0.3700932086303237 12.790956782226814 -0.38700940255972166 L 12.796977419641262 -0.38700940255972166 M 12.839099416477413 -0.43117572030898665 C 12.836942770239402 -0.41569729053826254 12.84076183128588 -0.37750668007348614 12.81703872266776 -0.3769899835789627 C 12.817757604747097 -0.4017015550561709 12.825957353464535 -0.418864864700341 12.839099416477413 -0.43117572030898654 M 12.871157064202846 -0.33895662856904124 C 12.868191675625582 -0.3378558403850565 12.866102424582508 -0.33596877492679694 12.863137036005243 -0.3349129168727708 C 12.864889311073627 -0.34115820493701066 12.868101815365664 -0.34596572884257665 12.873156454986002 -0.34895358248482095 C 12.880322810714393 -0.3395182551935232 12.865158891853378 -0.34468522013875763 12.871157064202846 -0.33895662856904124 M 12.919277233388463 -0.3789893743621186 C 12.913795757533519 -0.3631290384867467 12.918243840399416 -0.33727174869559523 12.899238395426947 -0.3349129168727708 C 12.889870463330587 -0.3518291108021688 12.90626996076546 -0.3717331583738111 12.919277233388463 -0.3789893743621186 M 13.00149937121263 -0.40307192401990694 C 13.0037009475806 -0.3891435837327532 12.99401850457453 -0.37063237018982637 12.981415603121153 -0.3649487087500684 C 12.983212808319495 -0.3826062498237828 12.989098655344067 -0.3960628237463716 13.00149937121263 -0.40307192401990694 M 12.973418039988529 -0.35295236405113284 C 12.96528568646603 -0.3470215868966029 12.964858850231424 -0.333407757519159 12.951357346178876 -0.3329135260896149 C 12.953581387611825 -0.3430677354602496 12.966925636209517 -0.3600513245845854 12.973418039988529 -0.35295236405113284 M 13.06363774094532 -0.42715447367769543 C 13.066535734327646 -0.41100209195759296 13.045980199871604 -0.3989608171286988 13.037578265569353 -0.3809887651452746 C 13.028255263602952 -0.36112964770359085 13.025020294245936 -0.33563179895210776 13.00149937121263 -0.3389566285690413 C 13.015877012799368 -0.3783378874777195 13.045418573247122 -0.40165662492621246 13.06363774094532 -0.4271544736776955 M 14.031994366877193 -0.7439118898855467 C 14.031882041552297 -0.7296465736237038 14.01525789346763 -0.7224128227003755 14.001958574999897 -0.7278718334903406 C 14.001441878505371 -0.7427886366365827 14.019211744903982 -0.7488991343109469 14.031994366877193 -0.7439118898855467 M 13.729277616281394 -0.5554299947093856 C 13.730850170829942 -0.5612933766689777 13.745789439041165 -0.568055361227741 13.747317063459754 -0.5614281670588533 C 13.742127633449542 -0.5586649640664019 13.73406267512198 -0.5587098941963604 13.729277616281394 -0.5554299947093856 M 13.173896279863627 -0.3609499271837566 C 13.169493127127687 -0.3567040299026727 13.166662528940298 -0.35088557807303905 13.157856223468421 -0.3509529732679769 C 13.161518029060042 -0.35549091639379155 13.16657266868038 -0.366588658493556 13.173896279863627 -0.3609499271837566 M 13.017516962542857 -0.3028328040823587 C 13.019516353326013 -0.2878261406761995 13.00805917018658 -0.26971929830289965 12.991457487166892 -0.26673144466065535 C 12.986739823521244 -0.2844563809293075 13.007003312132554 -0.2937344527657502 13.017516962542857 -0.3028328040823587 M 13.10573727271649 -0.3208722512607207 C 13.09634687555515 -0.3068540507136499 13.086439781899289 -0.29339747679106104 13.069635913294787 -0.28677028262217336 C 13.075342039799525 -0.3033270355119028 13.091292235934814 -0.31970406788179817 13.10573727271649 -0.3208722512607207 M 13.03957765635251 -0.2587338815280317 C 13.035870920630929 -0.24974785553631962 13.033242508028353 -0.23963857629564345 13.021538209174148 -0.23865011343655518 C 13.022212161123527 -0.2507363183954079 13.029333586721958 -0.2562851894452901 13.03957765635251 -0.2587338815280317 M 13.570876443112489 -0.3729912020126509 C 13.583052508331258 -0.37755161020344474 13.59450969147069 -0.3828309004735756 13.608977193317347 -0.3850100117765658 C 13.602147813563645 -0.3771023089038591 13.57797540364594 -0.36762205148260285 13.570876443112489 -0.3729912020126509 M 13.767378366486252 -0.40909256143435413 C 13.782497355217307 -0.4174495656066464 13.791505846274 -0.4327707399225156 13.807456042409289 -0.4351745018752985 C 13.809637364053334 -0.4352028720775356 13.811765182796107 -0.4344988725678452 13.813499144888715 -0.4331751110921426 C 13.815049234372285 -0.43268087966259844 13.81583551164656 -0.43144530108873796 13.815498535671871 -0.4291538644608514 C 13.80458051409194 -0.4111593474124479 13.783867724181043 -0.4118782294917849 13.767378366486252 -0.40107253323675107 C 13.741947912929707 -0.3843585248921666 13.722740282372422 -0.3511776239177697 13.685178693727066 -0.35495175483428887 C 13.692075468675705 -0.38930083918760827 13.736646157594597 -0.392086507245039 13.767378366486252 -0.40909256143435413 M 13.189936336258832 -0.16451539900493017 C 13.170256939336983 -0.15665262626218213 13.147117922408324 -0.14196047376573284 13.127775501461164 -0.14043284934714184 C 13.125910901067884 -0.1606289427635148 13.17126786726105 -0.17161435953838278 13.189936336258832 -0.16451539900493017 M 13.1297973573093 -0.13243528621451806 C 13.131369911857849 -0.12286516853334473 13.125596390158174 -0.12052880177549952 13.117778547545385 -0.12034908125566524 C 13.114296462473597 -0.1286836203629782 13.119733008198581 -0.1369058341453948 13.1297973573093 -0.13243528621451806 M 13.211997030068485 -0.1464310216966097 C 13.203640025896194 -0.1410394061015824 13.186094810147376 -0.13544560492174162 13.173896279863627 -0.14043284934714184 C 13.17439051129317 -0.15236179885113965 13.20501039485993 -0.1542488643093991 13.211997030068485 -0.1464310216966097 M 13.316257396637326 -0.17051357135439804 C 13.3077206719452 -0.1573939734064984 13.296218558675807 -0.1397364323327841 13.276157255649311 -0.14443163091345368 C 13.272293264472875 -0.1608760584782868 13.304665423108016 -0.18826097268802933 13.316257396637326 -0.17051357135439804 M 13.199955755239591 -0.08829143353023239 C 13.201775425502912 -0.07863145558914197 13.18876815287991 -0.06778082920414952 13.177939991559896 -0.06420888387244406 C 13.178950919483965 -0.07854159532922478 13.188543502230116 -0.0843375820938791 13.199955755239591 -0.08829143353023239 M 13.504739291813486 -0.18653116268462488 C 13.51024323273341 -0.1922597542543414 13.524126642890606 -0.1984601121886227 13.532798157972607 -0.19455119088222794 C 13.535763546549873 -0.1941692847775801 13.53461782823593 -0.18972120191168262 13.534797548755764 -0.18653116268462488 C 13.526013708348865 -0.17655667383382445 13.514399269754577 -0.1810272217647012 13.502739901030331 -0.1765117437038659 C 13.480993718130387 -0.16810980940161513 13.464459430305638 -0.14180321831087794 13.43253657297008 -0.15647290574234796 C 13.445633705853 -0.17743281136801636 13.476972471499096 -0.18019601436046784 13.504739291813486 -0.18653116268462488 M 13.322255568986792 -0.10835273655672972 C 13.326928302502484 -0.09202063431679286 13.293163309838626 -0.09114449678260095 13.298217949458962 -0.10835273655672972 C 13.306485093371338 -0.11066663824959555 13.313988425074418 -0.11066663824959555 13.322255568986792 -0.10835273655672972 M 13.396480143678335 -0.1063533457735738 C 13.407038724218596 -0.10558953356427825 13.421641016455128 -0.1087795727913361 13.424516544772477 -0.1003102432941474 C 13.413688383452463 -0.10084940485365013 13.399310741865724 -0.09783908614642656 13.396480143678335 -0.1063533457735738 M 14.029994976094038 -0.31687346969440877 C 14.03181464635736 -0.30692144590858755 14.023412712055109 -0.3086063257820337 14.017998631395102 -0.31085283227996163 C 14.017818910875267 -0.31705319021424294 14.024041733874528 -0.31678360943449163 14.029994976094038 -0.31687346969440877 M 13.334296843815688 -0.05021314839035251 C 13.340924037984575 -0.05785127048330785 13.362737616079457 -0.061670331529785516 13.37039820323739 -0.048213757607196706 C 13.36419784530311 -0.037947222911665524 13.338318090446979 -0.03803708317158261 13.334296843815688 -0.05021314839035251 M 13.438534745319547 -0.06825259556871455 C 13.436310703886598 -0.058480292302727666 13.429481324132897 -0.05322346709757597 13.418495907358029 -0.05221253917350854 C 13.417529909563921 -0.06519734673153244 13.428268210624015 -0.06647785543535145 13.438534745319547 -0.06825259556871455 M 13.440579066232662 -0.042170655127770185 C 13.4406464614276 -0.03940745213531871 13.439590603373574 -0.03776750239183124 13.438557210384527 -0.036127552648343664 C 13.42404477840791 -0.025254461198372047 13.404837147850627 -0.027590827956217256 13.386438259632596 -0.020132426383096202 C 13.35761558126418 -0.008450592593870376 13.32704062782738 0.01987785434500189 13.302216731025275 -0.002092979204734169 C 13.321536686907455 -0.02918584756974618 13.357660511394139 -0.023367395740112595 13.388437650415753 -0.030129380298875907 C 13.405982866164571 -0.03401583654029139 13.421393900740355 -0.049584126570932585 13.440579066232662 -0.042170655127770074 M 13.143838022921349 0.07208666535684916 C 13.131369911857849 0.07249103652647615 13.126180481847635 0.0656841218377543 13.125776110678007 0.054092148308445664 C 13.13882831343097 0.04681346725515889 13.15352046592742 0.06155054988156672 13.143838022921349 0.07208666535684916 M 13.470659788239917 -0.03817187356145835 C 13.482386552159102 -0.05131393657433725 13.50527845337299 -0.03927266174544297 13.51273685494611 -0.042170655127770185 C 13.508625748054902 -0.03289258329132738 13.484790314111885 -0.03740806135216279 13.470659788239917 -0.03817187356145835 M 13.344316262796447 0.03400838021696906 C 13.372981685710007 0.028257323582273397 13.399198416540827 0.03755786048369547 13.424516544772477 0.04000655256643704 C 13.433772151543941 0.04090515516560811 13.448374443780473 0.03553600463556028 13.452597875996577 0.048049045829019255 C 13.426178959580943 0.04146678179009011 13.36601751556643 0.05189057194047619 13.344316262796447 0.03400838021696906 M 13.232058333094983 0.13022625352322637 C 13.243111145064788 0.1292377906641381 13.248794806504547 0.13352861807518046 13.248075924425208 0.14428938420025572 C 13.238236225964284 0.14410966368042144 13.233518562318636 0.13880790834531143 13.232058333094983 0.13022625352322637 M 13.262116590037259 0.12622747195691453 C 13.282986635403011 0.10762639815407049 13.292084986719619 0.13092267053758422 13.302216731025275 0.14026813756896472 C 13.31421307572421 0.1513209495387705 13.33919422798117 0.15549945162491663 13.334296843815686 0.1703713246412002 C 13.305092259342622 0.1711800669804543 13.272607775382584 0.15913879215156024 13.262116590037259 0.12622747195691453 M 13.394435822765221 0.09017104266516984 C 13.399894833555186 0.086172261098858 13.413710848517443 0.08718318902292554 13.41249773500856 0.09616921501463782 C 13.407038724218596 0.10016799658094955 13.393941591335675 0.09839325644758645 13.394435822765221 0.09017104266516984 M 13.482656132938853 0.08817165188201392 C 13.477893539163246 0.09235015396816004 13.468143700962239 0.08933983526093647 13.466616076543648 0.08412794018574354 C 13.471333740189296 0.08001683329453524 13.482049576184412 0.08206115420764981 13.482656132938853 0.08817165188201392 M 13.907717627411815 -0.06825259556871421 C 13.91627681716892 -0.07265574830465327 13.933822032917739 -0.07088100817129017 13.935776493570936 -0.062209493089287915 C 13.929014509012173 -0.057851270483307626 13.90634725844808 -0.05356044307226504 13.907717627411815 -0.06825259556871421 M 13.103737881933334 0.2565697789666983 C 13.082104024358287 0.2515151393463604 13.051259490141735 0.2555363859776516 13.045620758831936 0.23450908515704527 C 13.063255834840671 0.2358569890558022 13.090056657360952 0.24100148893605722 13.103737881933334 0.2565697789666983 M 13.480656742155698 0.12422808117375872 C 13.49647214790111 0.11162517972038244 13.532281461478084 0.12429547636869653 13.538796330322075 0.14026813756896472 C 13.519858280544542 0.15091657836914352 13.48616068307562 0.1444691047200901 13.480656742155698 0.12422808117375872 M 13.103737881933334 0.3347257400296142 C 13.09978403049698 0.34420599745087044 13.108635266098817 0.3523832811033285 13.111735445065959 0.36083014553553805 C 13.096908502179634 0.3876309680558192 13.075993526683924 0.4003012647041333 13.045620758831937 0.40290721224172965 C 13.043082206489277 0.3880353392254463 13.024705783336227 0.38904626714951385 13.015517571759702 0.3808689834970558 C 13.008261355771394 0.3615939577448335 13.01434938838078 0.3496200781108769 13.013495715911565 0.3367475958777495 C 13.021695464629003 0.3315806309325151 13.028210333472995 0.3247063210488552 13.031557628154907 0.31468690206809624 C 13.060133190808552 0.3017470246400309 13.091719072169418 0.3104410047870123 13.103737881933334 0.3347257400296142 M 13.031557628154907 0.412949096287468 C 13.024413737491496 0.4163413210993394 13.006554010832968 0.42114884500490546 13.005498152778943 0.40895031472115617 C 13.010328141749488 0.4019412144476209 13.027985682823202 0.40654655276837315 13.031557628154907 0.412949096287468 M 13.14383802292135 0.38686715584652376 C 13.1503978218953 0.3962126228779044 13.184657045988702 0.40039112496405016 13.19595697367328 0.41694787785377985 C 13.178816129094088 0.4080517121219849 13.147702014097785 0.40243544587716484 13.14383802292135 0.38686715584652376 M 13.69719750349098 0.21042653549925683 C 13.719056011715821 0.19658805547202018 13.750080266452207 0.2185813540867354 13.767378366486252 0.22848844774259813 C 13.777532575856887 0.2303755132008578 13.790719568999723 0.22916239969197671 13.78741720444777 0.24452850413780425 C 13.757314017375535 0.23888977282800483 13.710743937673486 0.24167544088543558 13.69719750349098 0.21042653549925683 M 13.84355740183099 0.20242897236663304 C 13.848140275086763 0.19694749651168864 13.861012757319891 0.19748665807119126 13.859597458226197 0.2084271447161009 C 13.853981191981378 0.2106961162790082 13.844051633260534 0.2106961162790082 13.84355740183099 0.20242897236663304 M 13.410475879160426 0.38686715584652376 C 13.413081826698024 0.39684164469732397 13.405623425124903 0.3967293193724275 13.406477097594115 0.40495153315484433 C 13.410633134615281 0.4141622097963491 13.422202643079611 0.4143868604461418 13.426044169191067 0.4239120479973566 C 13.427459468284763 0.43089868320591296 13.421955527364839 0.43644755425579507 13.420495298141185 0.4410304275115684 C 13.423258501133636 0.4462647876517405 13.429661044652732 0.4479496675251866 13.430537182186924 0.4550486280586392 C 13.420967064505751 0.4615185667726718 13.418990138787574 0.47560416251468074 13.420495298141185 0.49317184332847797 C 13.411262156434702 0.5072799041354659 13.393649545490947 0.5130758909001203 13.388437650415753 0.531250128468358 C 13.379698740138814 0.5332495192515136 13.379226973774248 0.5270716263822117 13.374396984803703 0.52525195611889 C 13.365073982837302 0.5272513469020459 13.362378175039787 0.5359003969190688 13.354380611907164 0.5392476916009814 C 13.345192400330639 0.5383715540667895 13.33955366902084 0.5340133314608093 13.332297453032531 0.5312501284683577 C 13.302643567259882 0.5387085300414787 13.294623539062279 0.5093466901135595 13.270159083299841 0.5051681880274133 C 13.275415908504993 0.49301458787362273 13.276067395389394 0.47268370406737414 13.258117808470947 0.47308807523700125 C 13.27054098940449 0.4439284208938954 13.267620530957183 0.4346728141224321 13.268159692516686 0.41694787785377985 C 13.277909530717693 0.41470137135585183 13.283997563327079 0.4087705942013218 13.282177893063757 0.39486471897914743 C 13.289119598142355 0.3898100793588095 13.298846971278383 0.3875635728608815 13.30421612180843 0.380868983497056 C 13.299723108812575 0.3740171386783755 13.289860945286671 0.3725344443897429 13.288176065413225 0.36282953631869397 C 13.286828161514467 0.36058302982076595 13.288220995543183 0.3596619621566155 13.29017545619638 0.35883075475238213 C 13.307451091165447 0.3519115147387639 13.325490538343809 0.36222297956425353 13.342698778117938 0.35593276137005514 C 13.370173552587598 0.3885295706549907 13.389268857819985 0.3587184294274859 13.410475879160426 0.386867155846524 M 13.875637514621403 0.3046450180223581 C 13.896215514142423 0.2999273543767096 13.91571519054444 0.3153833190824542 13.925734609525197 0.3026456272392024 L 13.931777712004624 0.3026456272392024 C 13.93409161369749 0.30502692412700605 13.934046683567532 0.30974458777265523 13.93377710278778 0.3146869020680967 C 13.942381222674843 0.31944949584370397 13.964891217784082 0.3103286794621163 13.963857824795037 0.3247287861138348 C 13.94220150215501 0.32495343676362753 13.896440164792216 0.3051617145168817 13.87763690540456 0.3207300045475232 C 13.879793551642571 0.31237300037523097 13.87945657566788 0.3105757951768886 13.875637514621403 0.3046450180223583 M 13.452126109632012 0.5552203528012498 C 13.47308601525768 0.5282173446961549 13.493843735298535 0.5089872490738911 13.518757492360557 0.48712874084905144 C 13.544929293061418 0.49928234100284197 13.586557058468024 0.4855561863005018 13.614975365666815 0.4810856383696249 C 13.62638761867629 0.494721932812048 13.636744013631738 0.5097959914131451 13.659096753286121 0.5071675788105694 C 13.665431901610278 0.5148955611634416 13.657007502243047 0.5226235435163142 13.675136809681327 0.5332495192515136 C 13.675136809681327 0.5392476916009816 13.677023875139586 0.5417862439436403 13.677023875139586 0.547784416293108 C 13.693670488289232 0.5627012194393501 13.692457374780352 0.5846495879241069 13.695198112707825 0.6134722662925234 C 13.68565046009163 0.6222336416344427 13.688076687109392 0.643328337649987 13.68717808451022 0.6555268679337358 C 13.685470739571796 0.6611880643085146 13.678012337998675 0.661053273918639 13.677181130594441 0.6675681427626301 C 13.677922477738758 0.6977162599648246 13.646898223002372 0.6961661704812541 13.633059742975135 0.7116895303819366 C 13.632812627260364 0.7174405870166325 13.63416053115912 0.7248315933948155 13.63101542206202 0.7277295867771427 C 13.619108937623002 0.7302681391198014 13.622838138409563 0.717171006236881 13.612975974883659 0.7176877027314044 C 13.601676047199081 0.7177326328613629 13.59641922199393 0.7238655956007065 13.582917717941381 0.721731414427675 C 13.57778315515256 0.7248024296377857 13.57416051480636 0.7298741261224662 13.572920764025604 0.7357271499097666 C 13.5549262469772 0.7354800341949945 13.555128432562013 0.7271904252176404 13.538796330322075 0.7237308052108309 C 13.531450254073851 0.7236858750808726 13.53113574316414 0.7307174404193872 13.526755055493181 0.7337277591266105 C 13.523699806656 0.7204284406588766 13.507165518831249 0.7168115651972125 13.494697407767749 0.7237308052108309 C 13.491709554125503 0.7177326328613631 13.490788486461353 0.6868880986448114 13.462617294977337 0.6936500832035748 C 13.453226897815997 0.6742851971914352 13.457135819122392 0.6416659228415202 13.43253657297008 0.6375098858203534 C 13.432401782580204 0.6300290191822531 13.441185622987103 0.6314443182759475 13.438557210384527 0.6214698294251473 C 13.43687233051108 0.6158086330503687 13.429391463872982 0.6159434234402443 13.428537791403768 0.609428554596253 C 13.43503019518278 0.6005548539294374 13.453069642361143 0.6017904325032977 13.44657723858213 0.5813921535021114 C 13.439568138308594 0.5733945903694877 13.4144072655318 0.5733945903694877 13.430537182186924 0.5633077761937908 C 13.433008339334645 0.5612185251507178 13.44435319714918 0.5568153724147789 13.452126109632012 0.55522035280125 M 13.893676961799766 0.4249679060513831 C 13.894530634268978 0.427349202939187 13.905358795588992 0.42494544098640397 13.90571823662866 0.4329879342489862 C 13.90194410571214 0.43125812424558174 13.888173020879842 0.4293261286573635 13.893676961799766 0.4249679060513831 M 13.741902982799749 0.5252519561188902 C 13.756055973736695 0.5284195302809687 13.770658265973227 0.5311827332734202 13.779981267939629 0.5392476916009816 C 13.765850742067661 0.5341705869156643 13.755966113476777 0.5327552878219697 13.741902982799749 0.5252519561188902 M 13.552836995934125 0.7397259314760787 C 13.553331227363671 0.743455132262639 13.559351864778117 0.7579001690443163 13.55083760515097 0.7577878437194199 C 13.547759891248809 0.7548673852721137 13.546636637999844 0.749947536041651 13.546838823584658 0.7437471781073697 C 13.549691886837026 0.7432754117428049 13.55020858333155 0.740467278620395 13.552836995934125 0.7397259314760787 M 13.52149823028803 0.7570464965751036 C 13.519903210674501 0.7728843673854962 13.515949359238148 0.7862960111781265 13.509456955459136 0.7972140327580566 C 13.50779454065067 0.7861162906582921 13.510849789487851 0.7625055073650686 13.52149823028803 0.7570464965751036 M 13.586220082493337 0.7838697841603641 C 13.585591060673917 0.7905868385891692 13.588893425225871 0.8012128143243686 13.58017698001391 0.7999098405555702 C 13.580828466898309 0.7931703210617862 13.577526102346354 0.7825218802616074 13.586220082493337 0.7838697841603641 M 12.372095645688136 1.2169063767009693 C 12.371219508153944 1.2234886407398986 12.37413996660125 1.2442238957157743 12.370096254904979 1.2409664612937785 C 12.37099485750415 1.2344066623198287 12.368074399056844 1.2136714073439532 12.372095645688136 1.2169063767009693 M 13.824170050753871 0.797348823147932 C 13.793437841862216 0.7820051837670834 13.775960021308336 0.7751758040133825 13.75933587322367 0.7537890621531076 C 13.799054108107036 0.7661897780216704 13.82637162712184 0.7910361398887544 13.851554964963615 0.8179492877339318 C 13.838952063510238 0.8184884492934348 13.832729240510979 0.8035716461471927 13.824170050753873 0.797348823147932 M 13.615581922421256 0.8746735768066147 C 13.617154476969805 0.8913201899562613 13.626724594650979 0.9206820298841807 13.619580703987568 0.9327906999080127 C 13.61854731099852 0.9155824601338838 13.607090127859088 0.8881301507292034 13.615581922421256 0.8746735768066147 M 13.805052280456504 0.884962576567125 C 13.810309105661656 0.8873888035848874 13.807927808773853 0.8930724650246453 13.804535583961982 0.8957682728221585 C 13.80053680239567 0.8939710676238164 13.798043180182969 0.885928574361234 13.805052280456504 0.884962576567125 M 12.232183220997179 1.4223269308715083 C 12.255367168055797 1.4631459539388603 12.22059124746787 1.4892054293148256 12.230745456838505 1.528856269003255 C 12.217670789020564 1.5277330157542908 12.241955524263165 1.5459971135824455 12.222702963575923 1.548580596055063 C 12.21308791576479 1.5379096901899052 12.222321057471275 1.5244755813322954 12.222321057471275 1.5105472410451415 C 12.222231197211357 1.4792983356589628 12.208257926794245 1.442186048313192 12.232183220997179 1.4223269308715083 M 13.00149937121263 1.180849947409225 C 13.003670615123896 1.1807974010445657 13.00579207625188 1.1815045547538936 13.007497543562097 1.182849338192381 C 12.98905372521411 1.201854783164852 12.986312987286636 1.2365183784278813 12.955401057875147 1.242988317141914 C 12.951581996828669 1.2110429947413779 12.98588615105203 1.2000575779665097 13.00149937121263 1.180849947409225 M 12.87542542654891 1.25810730587297 L 12.870191066408736 1.2429433870119557 L 12.874010127455215 1.2416179481781784 C 12.874055057585172 1.2468972384483092 12.883310664356637 1.2566695417142961 12.87542542654891 1.25810730587297 M 12.644529488691868 1.3757568511694607 C 12.641182194009954 1.3654453863439708 12.634375279321233 1.3405540943469285 12.641541635049624 1.330175234326501 C 12.648146364153531 1.3425534851300842 12.65003342961179 1.36423227283509 12.644529488691868 1.3757568511694607 M 13.08918051982676 1.2014728770602043 C 13.096661386464861 1.2040563595328213 13.109354148178154 1.2280939790606515 13.103490766218563 1.2368328893375913 C 13.097672314388928 1.2304977410134343 13.07767840655737 1.2121887130553213 13.08918051982676 1.2014728770602043 M 12.010790005626372 1.642686753253268 C 12.00526359964147 1.651493058725146 12.004140346392505 1.6640285649835844 11.998748730797479 1.6727674752605246 L 12.028829452804734 1.5624864712772375 C 12.056079576624601 1.593960027313209 12.024358904873857 1.6210978258081794 12.010790005626372 1.642686753253268 M 13.300217340242119 1.0404657563537028 C 13.30486760869283 1.0478567627318858 13.31237094039591 1.0524171709226795 13.31425800585417 1.0625489152283354 C 13.307001789865861 1.0598980375607803 13.29053489723605 1.0469132300027562 13.300217340242119 1.0404657563537028 M 12.744836003824354 1.2449877079250697 C 12.744723678499456 1.2389221403806645 12.738770436279948 1.2271729113965004 12.746835394607508 1.2249488699635518 C 12.749463807210084 1.2285432803602365 12.751373337733323 1.2443362210406708 12.744836003824354 1.2449877079250697 M 12.905236567776415 1.0886083906043003 C 12.904472755567118 1.0787911572083548 12.895531659705366 1.05989803756078 12.905236567776415 1.052507031182597 C 12.909931766357083 1.0595610615860906 12.918693141699004 1.0877547181350875 12.905236567776415 1.0886083906043003 M 12.732817194060438 1.1527686161851245 C 12.723853633133706 1.1527461511201451 12.723853633133706 1.1267540709391177 12.732817194060438 1.12668667574418 C 12.736636255106916 1.132437732378876 12.735018770428407 1.1467030486407188 12.732817194060438 1.1527686161851245 M 11.949774889142647 1.403658461873726 C 11.95215618603045 1.3982219161487404 11.95435776239842 1.3923809992541276 11.95997402864324 1.3949644817267446 C 11.959951563578262 1.4008278636863367 11.958199288509878 1.4092297979885875 11.949774889142647 1.403658461873726 M 11.965096063458516 1.2409439962287996 C 11.96747736034632 1.2354849854388346 11.969701401779268 1.2296440685442218 11.975317668024088 1.2322275510168388 C 11.97527273789413 1.2381133980414103 11.973520462825746 1.2464928672786817 11.965096063458516 1.2409439962287996 M 13.176007995971679 0.7992134235412125 C 13.197641853546726 0.8054811766704317 13.182994631180236 0.8288673093138621 13.167898107514159 0.8259468508665557 C 13.153116094757792 0.8231162526791664 13.150869588259864 0.7919572075529049 13.176007995971679 0.7992134235412125 M 13.298217949458962 0.727841912102039 C 13.289703689831816 0.7315935779535787 13.27651669668898 0.724719268069919 13.274157864866154 0.7158006372731447 C 13.284401934496707 0.7176203075364667 13.295432281401533 0.7186087703955548 13.298217949458962 0.727841912102039 M 13.045620758831936 0.8047398295261154 C 13.032343905429181 0.8032122051075243 13.02268392748809 0.779241980774632 13.031557628154907 0.7686609351693914 C 13.03986970219724 0.7770628694716422 13.044632295972848 0.7890367491055985 13.045620758831936 0.8047398295261154 M 12.738837831474886 0.8099517246013084 C 12.736636255106916 0.8035491810822135 12.7440272614851 0.7916426966431949 12.744836003824354 0.781870393377208 L 12.75087910630378 0.781870393377208 C 12.753327798386522 0.7977307292525799 12.746543348762778 0.8042680631615504 12.738837831474886 0.8099517246013084 M 12.518612799483002 0.8542303676754697 C 12.522746371439188 0.8650135988655243 12.51802870779354 0.8776165003189003 12.51057030622042 0.8863104804658819 C 12.507896963487884 0.8776838955138384 12.509649238556268 0.8577573828772167 12.518612799483002 0.8542303676754697 M 12.62255865514213 0.6715893893939213 C 12.624513115795327 0.6541789640349793 12.624962417094913 0.6352184491924666 12.636599320754181 0.627468001774615 C 12.638643641667295 0.6425420603757122 12.635004301140652 0.6648274048351579 12.62255865514213 0.6715893893939213 M 12.460473211316625 0.699872906202835 C 12.457867263779027 0.7079378645303966 12.454250388317364 0.7149918949338907 12.446432545704575 0.7179123533811969 C 12.451105279220265 0.7069943318012668 12.452363322859105 0.7091734431042571 12.460473211316625 0.699872906202835 M 12.55237779214686 0.6916506924204184 C 12.55206328123715 0.6894266509874698 12.555275785529187 0.671881435238652 12.55577001695873 0.6707132518597292 C 12.562868977492183 0.6541115688400414 12.592567793394792 0.646495911812065 12.604496742898789 0.651528086367424 C 12.625187067744706 0.6711176230293563 12.630556218274755 0.7125656679161283 12.598498570549323 0.7196870935145603 C 12.577448804663737 0.7244272222251886 12.555433040984042 0.7133968753203619 12.55237779214686 0.6916506924204184 M 12.690717662289266 0.6254686109914589 C 12.704758327901317 0.6134048710975855 12.716619882210377 0.6146629147364251 12.738837831474886 0.6134722662925234 C 12.764380610356326 0.6185493709778407 12.78084750298614 0.6504272981834394 12.770917944265298 0.6916506924204184 C 12.759101320086197 0.6938747338533673 12.754540911895402 0.7033325262096441 12.746835394607508 0.7096901395987805 C 12.740163270308663 0.7144751984393671 12.736052163417455 0.7067696811514741 12.730390967042677 0.7088813972595265 C 12.724864561057773 0.7133519451904031 12.719495410527726 0.7164071940275849 12.714777746882076 0.7217314144276747 C 12.703252182663372 0.7261344513345991 12.690640355694093 0.7268333632899329 12.678698852525352 0.7237308052108307 C 12.664029165093883 0.7198668140343945 12.658682479628814 0.707960329595376 12.644596883886805 0.6996931856830009 C 12.634936905945715 0.695851659571544 12.671712217316797 0.6501352523387085 12.672655750045926 0.6154716570756793 C 12.673082586280533 0.6001504827598101 12.67874378265531 0.6052725175750859 12.682697634091664 0.5913891074178907 C 12.687550088127189 0.5938827296305909 12.683933212665524 0.6182348600681307 12.690717662289266 0.6254686109914589 M 12.825058750865363 0.5573096038443228 C 12.82854083593715 0.5508172000653109 12.8457266106463 0.5519853834442332 12.845097588826881 0.5613083854106347 C 12.843592429473269 0.5704292017922223 12.823059360082206 0.5689015773736315 12.825058750865363 0.5573096038443228 M 12.903237176993258 0.5292507376852018 C 12.899350720751842 0.5439204251166718 12.874549289014716 0.5503454337007461 12.861137645222087 0.5432689382322726 C 12.862148573146154 0.5176138340259346 12.892386550608265 0.5093466901135597 12.903237176993258 0.5292507376852018 M 12.953356736962032 0.5172094628563075 C 12.955985149564608 0.5143788646689185 12.963960247632253 0.5099757119329793 12.965398011790926 0.5172094628563075 C 12.961623880874408 0.5188943427297537 12.95499668670552 0.5246004692344908 12.953356736962032 0.5172094628563075 M 12.947358564612564 0.5232525653357338 C 12.943584433696046 0.5312501284683577 12.9224897376805 0.5283746001510099 12.927297261586068 0.5152100720731516 C 12.933857060560017 0.5110989651819433 12.948234702146756 0.5134577970047678 12.947358564612564 0.5232525653357338 M 13.017516962542857 0.5172094628563075 C 13.006688801222843 0.5113460808967154 12.99992681666408 0.5013940571108941 12.99745565951636 0.48712874084905144 C 13.01115934915372 0.4901390595562749 13.015315386174887 0.5026970308796925 13.017516962542857 0.5172094628563075 M 13.113734835849113 0.47508746602015717 C 13.107175036875164 0.47969280434090944 13.098323801273327 0.47275109926231207 13.089719681386264 0.47308807523700125 C 13.089832006711159 0.4622374488520089 13.114655903513263 0.4662811605482793 13.113734835849113 0.47508746602015717 M 13.18593755469252 0.43703164594525634 C 13.21186223967861 0.44183916985082217 13.198517991080918 0.473784492251359 13.179939382343052 0.4710886844538451 C 13.160709286720788 0.46832548146139374 13.163382629453324 0.4327857486641724 13.18593755469252 0.43703164594525634 M 12.534338344968498 0.603430382246785 C 12.540291587188007 0.6033854521168265 12.54114525965722 0.5981960221066129 12.546379619797392 0.5973872797673587 C 12.542942464855562 0.6018578276982356 12.534562995618291 0.6163702596748506 12.530339563402185 0.6074291638130971 C 12.533821648473975 0.603655032896578 12.5380226156251 0.6101923668055484 12.534338344968498 0.6034303822467852 M 12.269991925357306 1.0126090757793953 C 12.25680493221447 1.0091269907076068 12.261432735600202 0.9878076440422698 12.253974334027081 0.9785520372708063 C 12.244920912840431 0.9845277445552949 12.231644059437675 0.9936934910668414 12.237934277631874 1.0086102942130832 C 12.232902103076515 1.0031737484880972 12.23305935853137 1.011732938245203 12.229891784369292 1.012609075779395 C 12.221714500716834 1.0124742853895192 12.223039939550612 1.0047912331666053 12.217872974605378 1.0026121218636155 C 12.197227579889418 1.009733547462047 12.183838401161768 1.0154396739667844 12.161710312157176 1.012609075779395 C 12.152342380060817 0.9985234800373863 12.123474771562442 1.0003880804306664 12.119633245450984 0.9965914844491683 C 12.112758935567324 0.9566036687860495 12.094719488388963 0.9613437974966776 12.077533713679813 0.9484488501985708 C 12.076994552120311 0.9446073240871138 12.08139770485625 0.9390584530372315 12.085531276812437 0.9344306496515 C 12.08483485979808 0.931330470684359 12.083711606549116 0.9286346628868458 12.082745608755006 0.9258040646994565 C 12.071265960550594 0.931330470684359 12.059337011046598 0.9361155295249459 12.049362522195796 0.9427651887588129 C 12.0329854898259 0.9537056754037223 12.02554955331776 0.9730705614158619 12.004701973016987 0.9760808801230854 C 12.002477931584039 0.9754743233686449 12.001646724179805 0.9742836749247432 12.00180397963466 0.972666190246235 C 12.001256643416614 0.9705566491762705 12.001438738021877 0.968324010972599 12.002320676129184 0.9663310419220781 C 12.010767540561393 0.9525824221547585 12.028380151505148 0.9502909855268717 12.041993980882593 0.939642544726693 C 12.05329390856717 0.9307913091248565 12.06331332754793 0.9189072897508175 12.073557397178481 0.9083936393405139 L 12.073534932113501 0.9083487092105555 C 12.0854638816175 0.8946674846381741 12.081173054206458 0.865417970035151 12.081532495246126 0.8402121671283986 C 12.086564669801485 0.8372243134861543 12.092562842150953 0.8352024576380193 12.095550695793197 0.8301702830826605 C 12.088721316039496 0.8199486785170877 12.077061947315249 0.821656023455513 12.075534322896658 0.8141302266874544 C 12.076073484456161 0.8070986613489395 12.093102003710456 0.818600774618331 12.092270796306222 0.8129620433085316 C 12.092225866176264 0.8096372136915984 12.077983014979399 0.8110075826553342 12.077533713679815 0.8081320543379864 C 12.089058292014185 0.8043129932915085 12.090271405523065 0.7901150722246033 12.091551914226885 0.7760294764825948 C 12.089485128248791 0.7689529810141216 12.077803294459565 0.7724350660859098 12.075534322896658 0.7660100575018358 C 12.085710997332272 0.7581697498240669 12.10635639204823 0.7546202695573405 12.097550086576353 0.7339074796464444 C 12.110602289329314 0.7269433095028672 12.111298706343671 0.7075334933607691 12.119633245450984 0.695874124636523 C 12.138189389123871 0.6976937948998447 12.143581004718898 0.6864163322802459 12.14567025576197 0.6717915749787344 C 12.16193496280697 0.680552950320654 12.188331414157624 0.674397522516331 12.187769787533142 0.6537296627353932 C 12.196733348459874 0.6591662084603789 12.205764304581546 0.6649846602900125 12.227892393586137 0.6657709375642873 L 12.227892393586137 0.6457096345377902 C 12.235867491653782 0.6446088463538053 12.225263980983561 0.6559761692333212 12.235463120484154 0.6548753810493364 C 12.237372651007393 0.6511911103927346 12.229914249434271 0.6450356825884116 12.23591242178374 0.6436877786896551 C 12.239439436985487 0.6588966276806276 12.254154054546916 0.6628954092469395 12.271991316140463 0.6637715467811314 C 12.275900237446859 0.6603343918393016 12.278056883684869 0.655167426894067 12.284032590969359 0.6537296627353932 C 12.285762400972763 0.6612329944384729 12.285043518893426 0.6641759179507585 12.290030763318827 0.6697921841955785 C 12.300948784898756 0.6702639505601435 12.30645272581868 0.6760824023897769 12.320111485326082 0.6737909657618903 L 12.346193425767026 0.6978735154196787 C 12.351292995517323 0.7067696811514739 12.355089591498821 0.7169912857170464 12.370253510359836 0.7159129625980407 C 12.371376763608799 0.7250337789796288 12.36266031839684 0.7243822920952294 12.364210407880408 0.7339074796464444 C 12.370478161009629 0.7386700734220519 12.37355587491179 0.7361090560144137 12.380250464275615 0.7379062612127563 C 12.379217071286568 0.744241409536913 12.376745914138848 0.7491612587673757 12.374252291926148 0.7539912477379205 C 12.378385863882334 0.7579001690443155 12.37917214115661 0.7651339199676437 12.386293566755041 0.7660100575018356 C 12.388989374552555 0.7653810356824153 12.389348815592223 0.7652237802275608 12.39352731767837 0.7624381121701298 C 12.394717966122272 0.756282684365807 12.39480782638219 0.7498127456517745 12.402311158085269 0.7499924661716084 C 12.408893422124198 0.7489366081175826 12.408893422124198 0.7521940425395781 12.408309330434736 0.7519918569547643 C 12.40630993965158 0.7679645181550327 12.397615959504598 0.7773549153163719 12.384294175971887 0.7820725789620206 L 12.384294175971887 0.7960907795090912 C 12.391887367934883 0.8001344912053618 12.396380380930738 0.803908622121881 12.400311767302112 0.8021338819885178 C 12.403434411334233 0.8094350281067839 12.385350034025912 0.8051891308257 12.38229478518873 0.8121308359042974 C 12.38202520440898 0.8349328768582667 12.38570947506558 0.8382801715401798 12.39229173910451 0.8542303676754683 C 12.383395573372715 0.8618460247034445 12.371623879323572 0.868697869522125 12.374252291926148 0.8823116988995687 C 12.36292989917659 0.88633294553086 12.35605558929293 0.8948472051580072 12.348192816550183 0.9023505368610865 C 12.346867377716405 0.9096966131093112 12.352506109026205 0.9100560541489797 12.352191598116494 0.9163462723431783 C 12.343475152904533 0.9217603530031848 12.33952130146818 0.9123474907768665 12.332152760154976 0.9163462723431783 C 12.3301758344368 0.9270845734032742 12.32828876897854 0.9379127347232872 12.324132731957373 0.946471924480393 C 12.31361908154707 0.948246664613756 12.316584470124335 0.936609760954489 12.306070819714032 0.9384294312178107 C 12.301038645158673 0.9507402868264561 12.294029544885138 0.9611640769768421 12.275990097706776 0.9605125900924429 C 12.271429689515982 0.9672745746512064 12.26738597781971 0.9745981858344517 12.265993143790997 0.9845951397502315 C 12.26805992976909 0.9938732115866742 12.278169209009766 0.9950638600305761 12.280033809403045 1.0046115126467703 C 12.277674977580222 1.004970953686439 12.2808425517423 1.0148106521473634 12.269991925357308 1.0126090757793942 M 12.024358904873857 1.0903157355427244 C 12.01806868667966 1.0905628512574965 12.01746212992522 1.0851712356624692 12.016361341741234 1.080273851496986 C 12.023752348119418 1.0788810174682708 12.025190112278091 1.0834414256590645 12.024358904873857 1.0903157355427244 M 12.075534322896658 1.0567304633987005 C 12.082925329274842 1.055360094434964 12.084363093433515 1.059898037560779 12.083531886029283 1.0667723474444386 C 12.077241667835084 1.0670194631592105 12.076635111080643 1.0616503126291628 12.075534322896658 1.0567304633987005 M 11.555894904860926 1.2386525596009128 C 11.556299276030554 1.2249264048985724 11.568879712418951 1.2109531344814601 11.582403681536478 1.2172658177406381 C 11.582223961016643 1.2316434593273775 11.569059432938785 1.2441115703908778 11.555894904860926 1.2386525596009128 M 11.328952818440237 1.2447181271453185 C 11.32578524427816 1.2417752036330327 11.323785853495004 1.235956751803399 11.32919993415501 1.233912430890285 C 11.336141639233608 1.2353501950489587 11.333086390396426 1.2432129677917065 11.328952818440237 1.2447181271453185 M 11.847671168811818 1.0336363766000014 C 11.842773784646335 1.036759020632121 11.839673605679195 1.0441949571402631 11.83509073242342 1.0478792277968652 C 11.829586791503498 1.0439029112955323 11.84167299646235 1.0327827041307889 11.847671168811818 1.0336363766000014 M 11.106773325795157 1.066547696794647 C 11.105807328001047 1.0575616708029347 11.112793963209604 1.0565507428788674 11.120836456472185 1.0565507428788674 C 11.127935417005638 1.045385605584165 11.144447239765409 1.0336813067299602 11.160914132395222 1.0384663655705468 C 11.157589302778288 1.0605944545751378 11.12101617699202 1.0684122971879273 11.106773325795157 1.066547696794647 M 12.091551914226885 0.6858322405907848 C 12.094562232934107 0.6732293391374087 12.107906481531801 0.654246359229917 12.125653882865432 0.6497084161041025 C 12.127091647024105 0.6655912170444536 12.104357001265074 0.6842147559122767 12.091551914226883 0.6858322405907848 M 12.466156872756383 0.5432689382322726 C 12.455148990916534 0.5447067023909467 12.4406590240049 0.5552652829312081 12.426056731768368 0.5593089946274785 C 12.415071314993499 0.5536253331877206 12.407365797705605 0.5445719120010708 12.391977228194799 0.5432689382322726 C 12.394178804562769 0.5342829122405606 12.385844265455455 0.5294304582050358 12.38193534414906 0.5212082444226194 C 12.369130257110871 0.4601257327439563 12.451397325064995 0.4448270234930667 12.474176900953985 0.4830850291527806 C 12.471436163026514 0.4897122233216684 12.473300763419793 0.5005179195767022 12.480175073303453 0.5031687972442573 C 12.476400942386935 0.5174341135061 12.472447090950581 0.531519709248109 12.466156872756383 0.5432689382322724 M 12.209852946407775 0.6176507683786692 C 12.200664734831248 0.6108438536899474 12.198485623528258 0.6133599409676267 12.185770396749986 0.6156513775955132 C 12.144973838747612 0.6032057315969921 12.127653273648587 0.5464589774593303 12.159710921374021 0.5134353319397884 C 12.169797735549718 0.5134577970047676 12.175863303094124 0.5094590154384557 12.179772224400518 0.5033485177640917 C 12.200462549246435 0.4983612733386913 12.210953734591758 0.5081785067346369 12.223893612019824 0.5033485177640917 C 12.22497193513883 0.5184450414301678 12.238203858411627 0.5198378754588833 12.247931231547653 0.5254316766387239 C 12.257389023903931 0.5433587984921895 12.267520768209586 0.5716647803660826 12.247931231547653 0.583571264805101 L 12.247931231547653 0.5915688279377251 C 12.246583327648898 0.5943320309301765 12.23123968826805 0.60295861588222 12.22589300280298 0.6116525960292014 C 12.216120699536994 0.6028462905573237 12.213492286934418 0.6110235742097816 12.209852946407775 0.6176507683786692 M 12.101571333207643 0.6537296627353935 C 12.098179108395772 0.6493489750644339 12.104738907369722 0.6420478289461677 12.111590752188402 0.6416883879064992 C 12.110332708549564 0.6477764205158842 12.108468108156282 0.6533028265007872 12.101571333207643 0.6537296627353935 M 11.680239039521243 0.7878910307916549 C 11.686529257715442 0.7841842950700735 11.688348927978764 0.7759396162226777 11.698233556569646 0.7758272908977812 C 11.697245093710558 0.7836002033806122 11.685495864726395 0.7910586049537331 11.680239039521243 0.7878910307916549 M 11.673185009117748 0.7461958701901108 C 11.67129794365949 0.7527107390341023 11.658447926491341 0.7582146799540257 11.652157708297143 0.7657629417870639 L 11.647215394001702 0.7623033217802546 C 11.654291889470175 0.7479032151285361 11.663614891436575 0.7464205208399037 11.673185009117748 0.7461958701901108 M 12.412038531221295 0.3908659374128354 C 12.41471187395383 0.37756661894510146 12.422417391241723 0.36918714970783006 12.43407675996597 0.36482892710184966 C 12.438794423611618 0.3773868984252673 12.422170275526952 0.3930225836508465 12.412038531221295 0.3908659374128354 M 11.85977983883565 0.49018398968623345 C 11.859959559355485 0.4832872147375944 11.86946228184172 0.4725489136774983 11.874741572111851 0.46881971289093793 C 11.882065183295097 0.4739866778361723 11.867170845213833 0.49526109437155075 11.85977983883565 0.49018398968623345 M 12.251637967269236 0.32073000454752276 C 12.257231768449076 0.30628496776584546 12.267049001845022 0.2960408981352938 12.285717470842803 0.2946480641065783 C 12.283718080059648 0.3119686292056034 12.265004680931908 0.3212467010420461 12.251637967269236 0.32073000454752276 M 11.40971472704075 0.6121243623937667 C 11.407715336257594 0.6004649936695201 11.41068072483486 0.5879294874110819 11.418902938617276 0.5744953785534723 C 11.428877427468077 0.5833690792202879 11.423036510573464 0.6085299519970817 11.40971472704075 0.6121243623937667 M 11.904665038664252 0.4016716336678694 C 11.904575178404334 0.39720108573699275 11.912056045042435 0.38316042012494256 11.917784636612152 0.38639538948195873 C 11.91439241180028 0.3914275640373175 11.912527811407001 0.40445730172530014 11.904665038664252 0.4016716336678694 M 11.67599314224016 0.4520607744163949 C 11.676195327824972 0.44356897985422705 11.685181353816684 0.4154651835651475 11.696683467086077 0.4224967489036622 C 11.691696222660676 0.43096607840085066 11.688191672523908 0.4515665429868507 11.67599314224016 0.4520607744163949 M 11.740355553405797 0.048049045829019255 C 11.711150968932733 0.07103080730282307 11.670601526645132 0.038658648667680096 11.640093968403269 0.021967105388074892 C 11.63135505812633 0.0172045116124675 11.619403643557352 0.019158972265664875 11.618033274593616 0.007926439776024807 C 11.623357494993705 0.008600391725403167 11.616213604330294 -0.0032836276486362115 11.624076377073042 -0.00009358842157825009 C 11.63571328073231 -0.002003118944817084 11.640812850482606 0.013093404721259305 11.6541570990803 0.015924002908648593 C 11.663974332476243 0.018103114211638682 11.675611236135511 0.012621638356694387 11.686237211870711 0.015924002908648593 C 11.69562760903205 0.01891185655089278 11.703984613204343 0.028616764621941737 11.712296687246676 0.03200898943381314 C 11.723259638956565 0.036479537364689896 11.738985184442061 0.034614936971409715 11.740355553405797 0.048049045829019255 M 11.62007759550673 0.07613037705311954 C 11.609339294446634 0.0895420208457498 11.587278600636981 0.0814770625181882 11.567936179689822 0.07812976783627545 C 11.561151730066078 0.07889358004557101 11.548773479262495 0.08376849914607476 11.547874876663323 0.07413098626996362 C 11.556231880835616 0.06155054988156672 11.610574873020495 0.05716986221060705 11.62007759550673 0.07613037705311954 M 11.443636975159464 0.042005943349592956 C 11.448511894259967 0.028257323582273397 11.483534930562666 0.03641214216975208 11.489712823431967 0.046049655045863336 C 11.48524227550109 0.06804295366057866 11.449410496859139 0.05418200856836275 11.443636975159464 0.042005943349592956 M 12.123317516107587 -0.190552409315916 C 12.120307197400363 -0.18736237008885825 12.111905263098112 -0.18760948580363035 12.113275632061848 -0.19455119088222794 C 12.118262876487249 -0.19486570179193785 12.123003005197877 -0.19493309698687566 12.123317516107587 -0.190552409315916 M 12.021056540321903 -0.05821071152297619 C 12.028155500855355 -0.05931149970696081 12.031412935277352 -0.056503366584550796 12.033097815150796 -0.05221253917350843 C 12.02923382397436 -0.04861812877682348 12.020764494477172 -0.05167337761400559 12.021056540321903 -0.05821071152297619 M 12.057157899743606 -0.11235151812304156 C 12.079196128488281 -0.12115782359491933 12.118891898306668 -0.12234847203882115 12.13131507924021 -0.10435395499041766 C 12.12100361441472 -0.07031938154680817 12.064391650666934 -0.09938917562999683 12.057157899743606 -0.11235151812304156 M 12.171415220228226 -0.15242919404607735 C 12.15755427513601 -0.15528225729844602 12.141356963285949 -0.15582141885794865 12.13535879093648 -0.16651478978808598 C 12.145198489397405 -0.16651478978808598 12.163395192030622 -0.16062894276351458 12.171415220228226 -0.15242919404607735 M 12.021056540321903 -0.15647290574234785 C 12.054507022076052 -0.14443163091345357 12.117993295707498 -0.14515051299279058 12.14535574485226 -0.12034908125566524 C 12.120464452855218 -0.11399146786652892 12.096089857352698 -0.13052575569127922 12.073197956138813 -0.13443467699767386 C 12.054147581036382 -0.1376247162247316 12.025010391758256 -0.13461439751750803 12.021056540321903 -0.15647290574234785 M 11.203013664166393 0.09616921501463749 C 11.21620065730923 0.08765495538749035 11.24524798632744 0.08693607330815345 11.259131396484635 0.10016799658094944 C 11.253447735044878 0.12454259208346852 11.20937127755553 0.10836774529838678 11.203013664166393 0.09616921501463749 M 12.115275022845005 -0.22665376873761922 C 12.104918627889557 -0.22629432769795077 12.09703339008183 -0.22838357874102388 12.09725804073162 -0.23865011343655484 C 12.108086202051634 -0.2400654125302496 12.118802038046752 -0.23316863758161055 12.115275022845005 -0.22665376873761922 M 11.650135852449008 -0.09029082431338831 C 11.641419407237047 -0.08876319989479708 11.612439473413776 -0.08298967819512215 11.610013246396013 -0.09431207094467942 C 11.620144990701668 -0.0993217804350589 11.64631679140253 -0.10332056200137074 11.650135852449008 -0.09029082431338831 M 11.271217601443487 -0.0060917607710460064 C 11.267802911566637 0.00559007301817982 11.24270943398478 0.005073376523656248 11.23307192110867 0.003927658209712859 C 11.23902516332818 -0.006226551160921634 11.256525448947038 -0.004698926742330745 11.271217601443487 -0.0060917607710460064 M 11.888737307593942 -0.24269382513282534 C 11.875572779516084 -0.23447161135040884 11.856477474283697 -0.24512005215058763 11.846592845692813 -0.25673449074487553 C 11.854365758175645 -0.2668437699855516 11.890422187467388 -0.26116010854579363 11.888737307593942 -0.24269382513282534 M 11.792452039092748 -0.2206331313231722 C 11.766437493846741 -0.21784746326574145 11.746308795625305 -0.21937508768433256 11.736356771839485 -0.2326519410870872 C 11.751992457065064 -0.24440117007125062 11.78613935583357 -0.23653839732850257 11.792452039092748 -0.2206331313231722 M 12.105278068929225 -0.4371738926584543 C 12.096786274367057 -0.4331751110921424 12.083172444989613 -0.44636210423497996 12.087216156685884 -0.45521333983681633 C 12.099527012294528 -0.4554604555515884 12.105547649708976 -0.4494622832021206 12.105278068929225 -0.4371738926584543 M 12.15939641046431 -0.4932916249766964 C 12.16227193878166 -0.49376339134126124 12.162788635276183 -0.49657152446367125 12.165417047878758 -0.4972904065430082 C 12.17500963062491 -0.4874731731470628 12.188308949092644 -0.4814076056026571 12.189477132471566 -0.4632109029694401 C 12.170022386199511 -0.46383992478886 12.169460759575028 -0.48329467106091667 12.15939641046431 -0.4932916249766964 M 12.247594255572965 -0.4592121214031283 C 12.23959669244034 -0.477947985595848 12.219310738764051 -0.4843954592449014 12.209538435498065 -0.5013116531742994 L 12.217535998630687 -0.5013116531742994 C 12.232318011387054 -0.47936328468954265 12.263229940798544 -0.4734774376649712 12.27367619601391 -0.44717084657423406 C 12.262668314174062 -0.44885572644768007 12.260646458325926 -0.4595490973778175 12.247594255572965 -0.4592121214031283 M 12.175436466859516 -0.5153747838513288 C 12.178311995176864 -0.5158240851509145 12.178828691671388 -0.5186546833383038 12.181457104273964 -0.5193735654176408 C 12.185837791944923 -0.5090171704621926 12.201945243535068 -0.5104773996858457 12.199496551452325 -0.4932916249766964 C 12.184287702461353 -0.49344888043155133 12.182333241808156 -0.5068605242241817 12.175436466859516 -0.5153747838513288 M 11.503798419173975 -0.2967897016029322 C 11.49180207447504 -0.29461059029994197 11.472257467943066 -0.3010805290139747 11.46965152040547 -0.3148740789112528 C 11.479783264711125 -0.3151436596910041 11.504157860213644 -0.313526175012496 11.503798419173975 -0.2967897016029322 M 12.13131507924021 -0.5775131535840179 C 12.148096482779733 -0.571582376429488 12.166068534763157 -0.566774852523922 12.16941582944507 -0.5474324315767617 C 12.152724286165464 -0.5534306039262296 12.138728550683373 -0.5621695142031695 12.13131507924021 -0.5775131535840179 M 11.321292231282303 -0.2486919974822932 L 11.313294668149679 -0.2486919974822932 C 11.312059089575818 -0.25349952138785914 11.310419139832332 -0.257812813863881 11.311295277366524 -0.2647320538774993 C 11.320685674527862 -0.26583284206148405 11.32571784908322 -0.25502714580645025 11.321292231282303 -0.2486919974822932 M 11.53585606689941 -0.39305250503914796 C 11.515794763872911 -0.3920865072450389 11.490566495901179 -0.40111746336670956 11.475717087949876 -0.40707070558621883 C 11.495126904091974 -0.40956432779891894 11.522174842327027 -0.4028922035000727 11.53585606689941 -0.39305250503914796 M 11.413578718217186 -0.40107253323675096 C 11.394213832205047 -0.38098876514527447 11.365481014096547 -0.4085983300048099 11.351372953289559 -0.4190895153501337 C 11.340207815994857 -0.4186177489855688 11.33106453454829 -0.4201678384691392 11.33135658039302 -0.4311757203089865 C 11.35730373044409 -0.4353766874601119 11.404952133265143 -0.4275363797823431 11.413578718217186 -0.40107253323675096 M 11.421576281349811 -0.4972904065430082 C 11.441772374766183 -0.49475185420034956 11.460553169088861 -0.4908653979589341 11.461653957272846 -0.46920907531890793 C 11.443592045029504 -0.45811133321914355 11.416004945234949 -0.4782849615705372 11.421576281349811 -0.4972904065430082 M 11.797776259492837 -0.6334287003174464 C 11.81327715432854 -0.6182198513264736 11.83111441592209 -0.6053024389633875 11.8438970378953 -0.5873303869799633 C 11.824914057987808 -0.5977766421953287 11.80296568950305 -0.6159284146985871 11.797776259492837 -0.6334287003174464 M 11.980956399333888 -0.6035950940249623 C 11.97277911568143 -0.6109187052082076 11.96345611371503 -0.6158834845686285 11.958895705524235 -0.6256108577046569 C 11.98338262635165 -0.613996419110369 12.001826444699638 -0.596361343101634 12.017057758755591 -0.575513762800862 C 12.000433610670925 -0.5815793303452677 11.992548372863196 -0.5931488388095969 11.980956399333888 -0.6035950940249621 M 11.849895210244767 -0.5612933766689775 C 11.830968936594354 -0.5668050945758774 11.814630609660698 -0.5788895616447982 11.803819361972263 -0.5953728802425456 C 11.828441073189554 -0.593238699069514 11.840976579447993 -0.5791081731975467 11.849895210244767 -0.5612933766689775" fill="#b3f5d1" transform="matrix(1,0,0,1,0,0)" fill-rule="nonzero"></path></g></g></g><defs><clipPath id="SvgjsClipPath1002"><path d=" M 11.348182914062502 -0.7844674752605241 h 2.6838181623600983 v 2.4572349505210482 h -2.6838181623600983 Z"></path></clipPath><clipPath id="b01d45067-56ad-40cb-918a-82660930ba3a571e4f56-06e0-45ed-8aee-449f507001bd"><path d=" M 10.546269954562115 -1.5992692389716412 L 14.588970722908488 -1.5992692389716412 L 14.588970722908488 1.911638511185211 L 10.546269954562115 1.911638511185211 Z"></path></clipPath></defs></svg>